<svg width="120" height="120" viewBox="0 0 120 120" fill="none" xmlns="http://www.w3.org/2000/svg">
<g clip-path="url(#clip0_26_6336)">
<path d="M75.5409 106.06H44.4609L49.3609 88.24H70.6409L75.5409 106.06Z" fill="url(#paint0_linear_26_6336)"/>
<path d="M103.561 35.7399C103.561 30.3199 99.1614 25.9199 93.7414 25.9199H26.2614C20.8414 25.9199 16.4414 30.3199 16.4414 35.7399V76.2999H103.541V35.7399H103.561Z" fill="url(#paint1_linear_26_6336)"/>
<path d="M16.4414 76.3V82.64C16.4414 88.06 20.8414 92.46 26.2614 92.46H93.7214C99.1414 92.46 103.541 88.06 103.541 82.64V76.3H16.4414Z" fill="url(#paint2_linear_26_6336)"/>
<path d="M59.9996 18.6199C59.9996 16.0399 57.8996 13.9399 55.3196 13.9399H28.4596C26.0596 13.9399 24.0996 15.8999 24.0996 18.2999V53.3799C24.0996 55.7799 26.0596 57.7399 28.4596 57.7399H55.3196C57.7196 57.7399 59.6796 59.5599 59.9396 61.8999C59.9396 61.7199 59.9996 61.5599 59.9996 61.3799V18.6199Z" fill="url(#paint3_linear_26_6336)"/>
<path d="M60 18.6199C60 16.0399 62.1 13.9399 64.68 13.9399H91.54C93.94 13.9399 95.9 15.8999 95.9 18.2999V53.3799C95.9 55.7799 93.94 57.7399 91.54 57.7399H64.68C62.28 57.7399 60.32 59.5599 60.06 61.8999C60.06 61.7199 60 61.5599 60 61.3799V18.6199Z" fill="url(#paint4_linear_26_6336)"/>
<path d="M48.7789 27.6601H35.3189C34.2789 27.6601 33.4189 26.8001 33.4189 25.7601C33.4189 24.7201 34.2789 23.8601 35.3189 23.8601H48.7789C49.8189 23.8601 50.6789 24.7201 50.6789 25.7601C50.6789 26.8001 49.8189 27.6601 48.7789 27.6601Z" fill="#232323"/>
<path d="M48.7789 35.5803H35.3189C34.2789 35.5803 33.4189 34.7203 33.4189 33.6803C33.4189 32.6403 34.2789 31.7803 35.3189 31.7803H48.7789C49.8189 31.7803 50.6789 32.6403 50.6789 33.6803C50.6789 34.7203 49.8189 35.5803 48.7789 35.5803Z" fill="#232323"/>
<path d="M48.7789 43.4997H35.3189C34.2789 43.4997 33.4189 42.6397 33.4189 41.5997C33.4189 40.5597 34.2789 39.6997 35.3189 39.6997H48.7789C49.8189 39.6997 50.6789 40.5597 50.6789 41.5997C50.6789 42.6397 49.8189 43.4997 48.7789 43.4997Z" fill="#232323"/>
<path d="M84.6793 27.6601H71.2193C70.1793 27.6601 69.3193 26.8001 69.3193 25.7601C69.3193 24.7201 70.1793 23.8601 71.2193 23.8601H84.6793C85.7193 23.8601 86.5793 24.7201 86.5793 25.7601C86.5793 26.8001 85.7193 27.6601 84.6793 27.6601Z" fill="url(#paint5_linear_26_6336)"/>
<path d="M84.6793 35.5803H71.2193C70.1793 35.5803 69.3193 34.7203 69.3193 33.6803C69.3193 32.6403 70.1793 31.7803 71.2193 31.7803H84.6793C85.7193 31.7803 86.5793 32.6403 86.5793 33.6803C86.5793 34.7203 85.7193 35.5803 84.6793 35.5803Z" fill="url(#paint6_linear_26_6336)"/>
<path d="M84.6793 43.4997H71.2193C70.1793 43.4997 69.3193 42.6397 69.3193 41.5997C69.3193 40.5597 70.1793 39.6997 71.2193 39.6997H84.6793C85.7193 39.6997 86.5793 40.5597 86.5793 41.5997C86.5793 42.6397 85.7193 43.4997 84.6793 43.4997Z" fill="url(#paint7_linear_26_6336)"/>
</g>
<defs>
<linearGradient id="paint0_linear_26_6336" x1="60.0009" y1="88.24" x2="60.0009" y2="106.06" gradientUnits="userSpaceOnUse">
<stop stop-color="#A33231"/>
<stop offset="1" stop-color="#EA3F3E"/>
</linearGradient>
<linearGradient id="paint1_linear_26_6336" x1="60.0014" y1="25.9199" x2="60.0014" y2="76.2999" gradientUnits="userSpaceOnUse">
<stop stop-color="#FFE18E"/>
<stop offset="1" stop-color="#FFC453"/>
</linearGradient>
<linearGradient id="paint2_linear_26_6336" x1="59.9914" y1="76.3" x2="59.9914" y2="92.46" gradientUnits="userSpaceOnUse">
<stop stop-color="#FF5F5E"/>
<stop offset="1" stop-color="#EA3F3E"/>
</linearGradient>
<linearGradient id="paint3_linear_26_6336" x1="42.0496" y1="13.9399" x2="42.0496" y2="61.8999" gradientUnits="userSpaceOnUse">
<stop stop-color="#F8F8F8"/>
<stop offset="1" stop-color="white"/>
</linearGradient>
<linearGradient id="paint4_linear_26_6336" x1="77.95" y1="13.9399" x2="77.95" y2="61.8999" gradientUnits="userSpaceOnUse">
<stop stop-color="#F8F8F8"/>
<stop offset="1" stop-color="white"/>
</linearGradient>
<linearGradient id="paint5_linear_26_6336" x1="70.002" y1="27.6601" x2="86.502" y2="27.6601" gradientUnits="userSpaceOnUse">
<stop stop-color="#7D9AFF"/>
<stop offset="1" stop-color="#5278FF"/>
</linearGradient>
<linearGradient id="paint6_linear_26_6336" x1="70.002" y1="35.5803" x2="86.502" y2="35.5803" gradientUnits="userSpaceOnUse">
<stop stop-color="#7D9AFF"/>
<stop offset="1" stop-color="#5278FF"/>
</linearGradient>
<linearGradient id="paint7_linear_26_6336" x1="70.002" y1="43.4997" x2="86.502" y2="43.4997" gradientUnits="userSpaceOnUse">
<stop stop-color="#7D9AFF"/>
<stop offset="1" stop-color="#5278FF"/>
</linearGradient>
<clipPath id="clip0_26_6336">
<rect width="120" height="120" fill="white"/>
</clipPath>
</defs>
</svg>
