<svg width="32" height="32" viewBox="0 0 32 32" fill="none" xmlns="http://www.w3.org/2000/svg">
<circle cx="16" cy="16" r="16" fill="white"/>
<g clip-path="url(#clip0_59_695)">
<path d="M15.9922 16.0001V11.8467H23.1898C21.7511 9.06943 19.078 7.6933 16.0047 7.6933C12.9313 7.6933 10.2499 9.36968 8.81543 11.8509L12.4017 18.0727L15.9922 15.996V16.0001Z" fill="#FF564F"/>
<path d="M12.4014 18.5978C12.3555 18.5978 12.3096 18.5936 12.2679 18.5811C12.1345 18.5436 12.0219 18.4602 11.951 18.3393L8.36471 12.1175C8.27296 11.9548 8.27296 11.7588 8.36471 11.5962C9.941 8.86896 12.8684 7.1759 16.0043 7.1759C19.4071 7.1759 22.1927 8.7939 23.6523 11.6129C23.7357 11.7755 23.7273 11.9673 23.6356 12.1216C23.5397 12.2759 23.3729 12.3718 23.1894 12.3718H16.5131V16.004C16.5131 16.1917 16.413 16.3626 16.2545 16.4544L12.6641 18.5311C12.5848 18.5769 12.4931 18.602 12.4014 18.602V18.5978ZM9.41974 11.8589L12.5932 17.3634L15.4705 15.6996V11.8464C15.4705 11.5587 15.7041 11.3251 15.9918 11.3251H22.2761C20.9167 9.31099 18.7232 8.21426 16.0043 8.21426C13.2854 8.21426 10.8417 9.6029 9.41974 11.8589Z" fill="#3D3D3D"/>
<path d="M15.9922 11.8466V16L19.5952 18.0767L16.0005 24.3069C20.5876 24.3069 24.3074 20.5871 24.3074 16C24.3074 14.4863 23.8987 13.2144 23.1898 11.8466H15.9922Z" fill="#FFCE00"/>
<path d="M16.0006 24.828C15.8129 24.828 15.6419 24.7279 15.5502 24.5694C15.4585 24.4068 15.4585 24.2108 15.5502 24.0482L18.8821 18.2684L15.7295 16.4502C15.5669 16.3585 15.4668 16.1834 15.4668 15.9999V11.8465C15.4668 11.5587 15.7003 11.3252 15.9881 11.3252H23.1856C23.3816 11.3252 23.5568 11.4336 23.6485 11.6046C24.4617 13.1725 24.8245 14.5278 24.8245 15.9957C24.8245 20.8622 20.8629 24.8238 15.9964 24.8238L16.0006 24.828ZM16.5135 15.6996L19.8537 17.6262C19.9747 17.6971 20.0622 17.8097 20.0956 17.9431C20.1331 18.0766 20.1123 18.2184 20.0456 18.3393L16.9347 23.7312C20.7878 23.2684 23.7861 19.9781 23.7861 16.004C23.7861 14.7822 23.5109 13.6813 22.8687 12.3719H16.5135V15.6996Z" fill="#3D3D3D"/>
<path d="M15.9926 15.9998L12.4021 18.0765L8.81166 11.8547C8.10691 13.0766 7.69824 14.4902 7.69824 15.9998C7.69824 20.5869 11.418 24.3066 16.0051 24.3066L19.5955 18.0765L15.9926 15.9998Z" fill="#88C434"/>
<path d="M16 24.8284C11.1335 24.8284 7.17188 20.8668 7.17188 16.0003C7.17188 14.4573 7.58054 12.9352 8.35618 11.5925C8.44792 11.4298 8.62307 11.3339 8.80655 11.3339C8.99421 11.3339 9.16518 11.434 9.25692 11.5925L12.5847 17.3639L15.7247 15.5499C15.8874 15.4581 16.0834 15.4581 16.246 15.5499L19.849 17.6266C20.0992 17.7684 20.1826 18.0895 20.0408 18.3397L16.4503 24.5698C16.3586 24.7324 16.1835 24.8325 16 24.8325V24.8284ZM8.83991 12.9519C8.42707 13.9152 8.2144 14.9536 8.2144 16.0003C8.2144 20.1912 11.5463 23.6232 15.7039 23.7775L18.8815 18.2646L15.9916 16.5966L12.6597 18.5232C12.5388 18.5941 12.397 18.6107 12.2636 18.5732C12.1301 18.5398 12.0175 18.4523 11.9466 18.3313L8.83991 12.9436V12.9519Z" fill="#3D3D3D"/>
<path d="M16.0001 20.1534C18.294 20.1534 20.1535 18.2939 20.1535 16C20.1535 13.7062 18.294 11.8466 16.0001 11.8466C13.7062 11.8466 11.8467 13.7062 11.8467 16C11.8467 18.2939 13.7062 20.1534 16.0001 20.1534Z" fill="#F4F4F4"/>
<path d="M16.0008 20.6746C13.4237 20.6746 11.3262 18.577 11.3262 15.9999C11.3262 13.4228 13.4237 11.3252 16.0008 11.3252C18.578 11.3252 20.6755 13.4228 20.6755 15.9999C20.6755 18.577 18.578 20.6746 16.0008 20.6746ZM16.0008 12.3677C13.9992 12.3677 12.3687 13.9982 12.3687 15.9999C12.3687 18.0015 13.9992 19.632 16.0008 19.632C18.0025 19.632 19.633 18.0015 19.633 15.9999C19.633 13.9982 18.0025 12.3677 16.0008 12.3677Z" fill="#3D3D3D"/>
<path d="M16.0005 17.9684C17.0876 17.9684 17.9688 17.0871 17.9688 16.0001C17.9688 14.913 17.0876 14.0318 16.0005 14.0318C14.9135 14.0318 14.0322 14.913 14.0322 16.0001C14.0322 17.0871 14.9135 17.9684 16.0005 17.9684Z" fill="#05BBEF"/>
<path d="M16.0003 18.4895C14.6283 18.4895 13.5107 17.3719 13.5107 15.9999C13.5107 14.628 14.6283 13.5104 16.0003 13.5104C17.3723 13.5104 18.4898 14.628 18.4898 15.9999C18.4898 17.3719 17.3723 18.4895 16.0003 18.4895ZM16.0003 14.5529C15.2038 14.5529 14.5533 15.2034 14.5533 15.9999C14.5533 16.7964 15.2038 17.4469 16.0003 17.4469C16.7968 17.4469 17.4473 16.7964 17.4473 15.9999C17.4473 15.2034 16.7968 14.5529 16.0003 14.5529Z" fill="#3D3D3D"/>
</g>
<defs>
<clipPath id="clip0_59_695">
<rect width="22.5185" height="22.5185" fill="white" transform="translate(4.74121 4.74072)"/>
</clipPath>
</defs>
</svg>
