<svg width="54" height="54" viewBox="0 0 54 54" fill="none" xmlns="http://www.w3.org/2000/svg">
<g clip-path="url(#clip0_53_2)">
<path d="M27 54C41.9117 54 54 41.9117 54 27C54 12.0883 41.9117 0 27 0C12.0883 0 0 12.0883 0 27C0 41.9117 12.0883 54 27 54Z" fill="#FFF6F6"/>
<path d="M26.9998 45.4C21.5198 45.4 17.0698 40.94 17.0698 35.46C17.0698 33.93 17.4298 32.41 18.1098 31.04L12.7298 21.67C12.3498 21.01 12.5798 20.17 13.2398 19.79L19.9998 15.91C20.2098 15.79 20.4498 15.73 20.6898 15.73C20.8098 15.73 20.9298 15.75 21.0398 15.78C21.3998 15.88 21.6998 16.11 21.8798 16.43L26.9998 25.35L32.1198 16.43C32.2998 16.11 32.5998 15.88 32.9498 15.79C33.0698 15.76 33.1898 15.74 33.3098 15.74C33.5498 15.74 33.7898 15.8 33.9998 15.92L40.7598 19.81C41.0798 19.99 41.3098 20.29 41.4098 20.65C41.5098 21.01 41.4598 21.38 41.2698 21.7L35.8898 31.07C36.5698 32.44 36.9298 33.96 36.9298 35.49C36.9298 40.97 32.4698 45.43 26.9898 45.43L26.9998 45.4ZM26.9998 28.29C26.7298 28.29 26.4598 28.31 26.1898 28.34L25.9298 28.38C23.9998 28.67 22.2498 29.75 21.1298 31.35C20.7598 31.88 20.4598 32.47 20.2298 33.09C19.9598 33.87 19.8198 34.66 19.8198 35.46C19.8198 39.42 23.0398 42.64 26.9998 42.64C30.9598 42.64 34.1798 39.42 34.1798 35.46C34.1798 34.66 34.0398 33.87 33.7698 33.09C33.5498 32.47 33.2498 31.88 32.8798 31.35C31.7598 29.75 29.9998 28.67 28.0798 28.38L27.8198 28.34C27.5498 28.31 27.2898 28.29 27.0098 28.29H26.9998ZM19.8598 28.57C21.0498 27.35 22.5398 26.44 24.1698 25.95L20.1698 18.99L15.7998 21.5L19.8598 28.57ZM29.8298 25.95C31.4598 26.44 32.9498 27.34 34.1398 28.57L38.1998 21.5L33.8298 18.99L29.8298 25.95Z" fill="#FF5F5E"/>
<path d="M27 39.97C24.52 39.97 22.5 37.95 22.5 35.47C22.5 35.35 22.5 35.23 22.52 35.11C22.65 33.53 23.62 32.11 25.06 31.42C25.68 31.12 26.33 30.97 27 30.97C27.67 30.97 28.33 31.12 28.94 31.42C30.38 32.11 31.35 33.53 31.48 35.11C31.48 35.23 31.5 35.35 31.5 35.47C31.5 37.95 29.48 39.97 27 39.97Z" fill="#FF5F5E"/>
<path d="M26.2501 13.7201C25.4901 13.7201 24.8701 13.1001 24.8701 12.3401V9.97009C24.8701 9.21009 25.4901 8.59009 26.2501 8.59009C27.0101 8.59009 27.6301 9.21009 27.6301 9.97009V12.3401C27.6301 13.1001 27.0101 13.7201 26.2501 13.7201Z" fill="#FF5F5E"/>
<path d="M20.7499 15.1999C20.2599 15.1999 19.7999 14.9399 19.5499 14.5099L18.3699 12.4599C17.9899 11.7999 18.2199 10.9599 18.8799 10.5799C19.0899 10.4599 19.3299 10.3999 19.5699 10.3999C20.0599 10.3999 20.5199 10.6599 20.7699 11.0899L21.9499 13.1399C22.3299 13.7999 22.0999 14.6399 21.4499 15.0199C21.2399 15.1399 20.9999 15.1999 20.7599 15.1999H20.7499Z" fill="#FF5F5E"/>
<path d="M31.7598 15.1999C31.5198 15.1999 31.2798 15.1399 31.0698 15.0199C30.4098 14.6399 30.1798 13.7899 30.5698 13.1399L31.7498 11.0899C31.9998 10.6599 32.4498 10.3999 32.9498 10.3999C33.1898 10.3999 33.4298 10.4599 33.6398 10.5799C34.2998 10.9599 34.5298 11.8099 34.1498 12.4699L32.9698 14.5199C32.7198 14.9499 32.2698 15.2099 31.7698 15.2099L31.7598 15.1999Z" fill="#FF5F5E"/>
</g>
<defs>
<clipPath id="clip0_53_2">
<rect width="54" height="54" fill="white"/>
</clipPath>
</defs>
</svg>
