<svg width="25" height="24" viewBox="0 0 25 24" fill="none" xmlns="http://www.w3.org/2000/svg">
<path d="M15.3328 20.6852C14.8924 20.1595 14.9506 16.8818 14.9288 16.8452C14.7833 16.5892 12.6071 16.7766 12.0612 16.8635C11.5153 16.772 10.2198 16.5892 10.0743 16.8452C10.0524 16.8818 10.1107 20.1641 9.67033 20.6852C9.23 21.2064 8.60771 21.5904 8.6441 21.7412C8.6805 21.8967 8.82606 21.8509 8.82606 21.8509H16.1734C16.1734 21.8509 16.3226 21.8967 16.3553 21.7412C16.3917 21.5904 15.7694 21.2064 15.3291 20.6852H15.3328Z" fill="white"/>
<path d="M16.5693 21.8572C16.5375 21.8572 16.5057 21.8572 16.4699 21.8498H8.53018C8.24406 21.8833 7.91423 21.7528 7.81091 21.4245C7.68772 21.0366 8.0255 20.8128 8.41891 20.5591C8.62158 20.4286 8.87193 20.2644 9.06665 20.0929C9.13023 20.0071 9.31303 19.5557 9.34482 17.534C9.34879 17.2207 9.34879 17.1572 9.44019 17.0342C9.59914 16.8253 9.78989 16.5753 12.0192 16.8439C12.5517 16.7805 15.1586 16.5045 15.5559 17.0267C15.6513 17.1535 15.6513 17.2169 15.6553 17.534C15.6871 19.5221 15.8619 19.9921 15.9414 20.1003C16.1361 20.2682 16.3785 20.4286 16.5772 20.5591C16.9746 20.8165 17.3164 21.0403 17.1852 21.432C17.1057 21.6894 16.8554 21.8572 16.5653 21.8572H16.5693ZM9.57927 20.921H15.4367C15.3771 20.8725 15.3175 20.824 15.2579 20.7755C14.8724 20.4323 14.7055 19.5595 14.6698 17.672C14.0538 17.6422 12.6511 17.713 12.0907 17.7802C12.047 17.7839 12.0033 17.7839 11.9596 17.7802C11.1251 17.6757 10.6125 17.6571 10.3423 17.6645C10.3065 19.5557 10.1436 20.4323 9.7581 20.7755C9.69849 20.8277 9.63888 20.8762 9.57927 20.9247V20.921Z" fill="#3D3D3D"/>
<path d="M20.6431 17.1522C20.6431 17.3838 20.4624 17.5715 20.2394 17.5715H4.7612C4.53816 17.5715 4.35742 17.3838 4.35742 17.1522V5.1376C4.35742 4.90602 4.53816 4.71436 4.7612 4.71436H20.2394C20.4624 4.71436 20.6431 4.90602 20.6431 5.1376V17.1522Z" fill="#FFE18E"/>
<path d="M20.5729 18.4285H4.42308C3.91338 18.4285 3.5 18.0214 3.5 17.5195V5.6272C3.5 5.12527 3.91338 4.71423 4.42308 4.71423H20.5769C21.0866 4.71423 21.5 5.12527 21.5 5.6272V17.5195C21.5 18.0214 21.0866 18.4285 20.5769 18.4285H20.5729ZM4.49933 17.4405H20.4967V5.70229H4.49933V17.4405Z" fill="#3D3D3D"/>
<path d="M4.35742 17.2148C4.35742 17.4118 4.53816 17.5714 4.7612 17.5714H20.2394C20.4624 17.5714 20.6431 17.4118 20.6431 17.2148V15H4.35742V17.2148Z" fill="white"/>
<path d="M20.5691 18.4285H4.42287C3.91329 18.4285 3.5 17.9902 3.5 17.4497V14.6748C3.5 14.3812 3.7247 14.1428 4.00156 14.1428H20.9984C21.2753 14.1428 21.5 14.3812 21.5 14.6748V17.4497C21.5 17.9902 21.0867 18.4285 20.5771 18.4285H20.5691ZM4.49911 17.3646H20.4929V15.2068H4.49911V17.3646Z" fill="#3D3D3D"/>
<path d="M12.5008 7.28561C12.2643 7.28561 12.0723 7.09361 12.0723 6.85704C12.0723 6.62047 12.2608 6.42847 12.5008 6.42847C12.7374 6.42847 12.9294 6.62047 12.9294 6.85704C12.9294 7.09361 12.7374 7.28561 12.5008 7.28561Z" fill="#3D3D3D"/>
<path d="M12.0711 7.00138L8.64258 4.71436V9.2884L12.0711 11.5715V7.00138Z" fill="white"/>
<path d="M12.4166 12.4286C12.3266 12.4286 12.2407 12.4054 12.1629 12.3629L8.03882 10.1118C7.87926 10.0268 7.78516 9.8643 7.78516 9.69412V5.19589C7.78516 5.02184 7.88335 4.86326 8.03882 4.77817C8.19838 4.69308 8.39068 4.69308 8.55024 4.77817L12.6743 7.02922C12.8339 7.11431 12.928 7.27676 12.928 7.44694V11.9452C12.928 12.1192 12.8298 12.2778 12.6743 12.3629C12.5966 12.4054 12.5066 12.4286 12.4207 12.4286H12.4166ZM8.80391 9.41564L11.9052 11.1059V7.72155L8.80391 6.02747V9.41177V9.41564Z" fill="#3D3D3D"/>
<path d="M12.4978 2.14282L8.64258 4.71204L12.4978 7.28568L16.3569 4.71204L12.4978 2.14282Z" fill="#FF5F5E"/>
<path d="M12.4974 7.28568C12.4058 7.28568 12.3184 7.26385 12.2393 7.22383L8.04324 5.10629C7.8809 5.02624 7.78516 4.87343 7.78516 4.71334C7.78516 4.55325 7.88506 4.40044 8.04324 4.3204L12.2393 2.20286C12.4016 2.12281 12.5973 2.12281 12.7596 2.20286L16.9556 4.3204C17.118 4.40044 17.2137 4.55325 17.2137 4.71334C17.2137 4.87343 17.1138 5.02624 16.9556 5.10629L12.7596 7.22383C12.6805 7.26385 12.5889 7.28568 12.5015 7.28568H12.4974ZM9.34201 4.71334L12.4974 6.30695L15.6527 4.71334L12.4974 3.11973L9.34201 4.71334Z" fill="#3D3D3D"/>
<path d="M16.3562 5.5L12.9276 7.20156V11.7717L16.3562 9.48858V5.5Z" fill="white"/>
<path d="M12.5796 12.4286C12.4896 12.4286 12.4037 12.4054 12.3259 12.3629C12.1664 12.2778 12.0723 12.1154 12.0723 11.9452V7.44694C12.0723 7.27289 12.1705 7.11431 12.3259 7.02922L16.45 4.77817C16.6096 4.69308 16.8019 4.69308 16.9615 4.77817C17.121 4.86326 17.2151 5.02571 17.2151 5.19589V9.69412C17.2151 9.86817 17.1169 10.0268 16.9615 10.1118L12.8374 12.3629C12.7596 12.4054 12.6696 12.4286 12.5837 12.4286H12.5796ZM13.091 7.72542V11.1097L16.1923 9.41951V6.0352L13.091 7.72929V7.72542Z" fill="#3D3D3D"/>
</svg>
