<svg width="32" height="32" viewBox="0 0 32 32" fill="none" xmlns="http://www.w3.org/2000/svg">
<circle cx="16" cy="16" r="16" fill="white"/>
<g clip-path="url(#clip0_59_684)">
<path d="M16.0001 21.3294C15.041 21.3294 14.1111 21.1417 13.2353 20.7706C12.3888 20.412 11.6299 19.899 10.9793 19.2485C10.3288 18.598 9.81586 17.839 9.45723 16.9925C9.08609 16.1168 8.89844 15.1868 8.89844 14.2277V13.5897C8.89844 13.3019 9.13196 13.0684 9.4197 13.0684C9.70744 13.0684 9.94096 13.3019 9.94096 13.5897V14.2277C9.94096 15.045 10.0994 15.8374 10.4164 16.5838C10.7208 17.3052 11.1586 17.9558 11.7174 18.5104C12.2762 19.0692 12.9226 19.5029 13.644 19.8115C15.1369 20.4453 16.8633 20.4453 18.3562 19.8115C19.0776 19.507 19.724 19.0692 20.2828 18.5104C20.8374 17.9558 21.2753 17.3052 21.5839 16.5838C21.9008 15.8374 22.0593 15.045 22.0593 14.2277V13.5897C22.0593 13.3019 22.2928 13.0684 22.5805 13.0684C22.8683 13.0684 23.1018 13.3019 23.1018 13.5897V14.2277C23.1018 15.1827 22.9141 16.1126 22.543 16.9925C22.1844 17.839 21.6714 18.598 21.0209 19.2485C20.3662 19.9032 19.6072 20.412 18.7649 20.7706C17.8892 21.1417 16.9592 21.3294 16.0043 21.3294H16.0001Z" fill="#3D3D3D"/>
<path d="M16.0008 25.6245C15.713 25.6245 15.4795 25.391 15.4795 25.1033V20.7664C15.4795 20.4786 15.713 20.2451 16.0008 20.2451C16.2885 20.2451 16.522 20.4786 16.522 20.7664V25.1033C16.522 25.391 16.2885 25.6245 16.0008 25.6245Z" fill="#3D3D3D"/>
<path d="M19.0069 25.5162H12.9978C12.7101 25.5162 12.4766 25.2826 12.4766 24.9949C12.4766 24.7072 12.7101 24.4736 12.9978 24.4736H19.0069C19.2947 24.4736 19.5282 24.7072 19.5282 24.9949C19.5282 25.2826 19.2947 25.5162 19.0069 25.5162Z" fill="#3D3D3D"/>
<path d="M18.794 14.4112C18.794 15.9541 17.543 17.2051 16 17.2051C14.4571 17.2051 13.2061 15.9541 13.2061 14.4112V9.69478C13.2061 8.15185 14.4571 6.90082 16 6.90082C17.543 6.90082 18.794 8.15185 18.794 9.69478V14.4112Z" fill="#FFA7A7"/>
<path d="M16.0008 17.7264C14.1743 17.7264 12.6855 16.2377 12.6855 14.4112V9.6948C12.6855 7.8683 14.1743 6.37958 16.0008 6.37958C17.8273 6.37958 19.316 7.8683 19.316 9.6948V14.4112C19.316 16.2377 17.8273 17.7264 16.0008 17.7264ZM16.0008 7.4221C14.7456 7.4221 13.7281 8.44378 13.7281 9.6948V14.4112C13.7281 15.6622 14.7456 16.6839 16.0008 16.6839C17.256 16.6839 18.2735 15.6622 18.2735 14.4112V9.6948C18.2735 8.44378 17.256 7.4221 16.0008 7.4221Z" fill="#3D3D3D"/>
</g>
<defs>
<clipPath id="clip0_59_684">
<rect width="22.5185" height="22.5185" fill="white" transform="translate(4.74121 4.74072)"/>
</clipPath>
</defs>
</svg>
