<svg width="28" height="28" viewBox="0 0 28 28" fill="none" xmlns="http://www.w3.org/2000/svg">
<g clip-path="url(#clip0_31_3407)">
<path d="M10.67 4H5.33C4.59546 4 4 4.59546 4 5.33V10.67C4 11.4045 4.59546 12 5.33 12H10.67C11.4045 12 12 11.4045 12 10.67V5.33C12 4.59546 11.4045 4 10.67 4Z" fill="#3D3D3D"/>
<path d="M22.67 16H17.33C16.5955 16 16 16.5955 16 17.33V22.67C16 23.4045 16.5955 24 17.33 24H22.67C23.4045 24 24 23.4045 24 22.67V17.33C24 16.5955 23.4045 16 22.67 16Z" fill="#3D3D3D"/>
<path d="M22.67 4H17.33C16.5955 4 16 4.59546 16 5.33V10.67C16 11.4045 16.5955 12 17.33 12H22.67C23.4045 12 24 11.4045 24 10.67V5.33C24 4.59546 23.4045 4 22.67 4Z" fill="#3D3D3D"/>
<path d="M10.67 16H5.33C4.59546 16 4 16.5955 4 17.33V22.67C4 23.4045 4.59546 24 5.33 24H10.67C11.4045 24 12 23.4045 12 22.67V17.33C12 16.5955 11.4045 16 10.67 16Z" fill="#3D3D3D"/>
</g>
<defs>
<clipPath id="clip0_31_3407">
<rect width="28" height="28" fill="white"/>
</clipPath>
</defs>
</svg>
