<svg width="22" height="22" viewBox="0 0 22 22" fill="none" xmlns="http://www.w3.org/2000/svg">
<g clip-path="url(#clip0_105_1545)">
<path d="M19.25 7.33402C20.2625 7.33402 21.0833 8.15484 21.0833 9.16736V12.834C21.0833 13.8466 20.2625 14.6674 19.25 14.6674H18.2766C17.8255 18.2848 14.7396 21.084 11 21.084V19.2507C14.0375 19.2507 16.5 16.7882 16.5 13.7507V8.25069C16.5 5.21312 14.0375 2.75069 11 2.75069C7.96239 2.75069 5.49996 5.21312 5.49996 8.25069V14.6674H2.74996C1.73744 14.6674 0.916626 13.8466 0.916626 12.834V9.16736C0.916626 8.15484 1.73744 7.33402 2.74996 7.33402H3.72336C4.17445 3.71657 7.26031 0.917358 11 0.917358C14.7396 0.917358 17.8255 3.71657 18.2766 7.33402H19.25ZM7.11278 14.4702L8.08457 12.9153C8.92977 13.4447 9.92911 13.7507 11 13.7507C12.0708 13.7507 13.0702 13.4447 13.9153 12.9153L14.8872 14.4702C13.7602 15.176 12.4278 15.584 11 15.584C9.57216 15.584 8.23971 15.176 7.11278 14.4702Z" fill="#FF5F5E"/>
</g>
<defs>
<clipPath id="clip0_105_1545">
<rect width="22" height="22" fill="white"/>
</clipPath>
</defs>
</svg>
