<svg width="32" height="32" viewBox="0 0 32 32" fill="none" xmlns="http://www.w3.org/2000/svg">
<circle cx="16" cy="16" r="16" fill="white"/>
<g clip-path="url(#clip0_59_712)">
<path d="M23.7234 23.6896L22.5808 19.3736C23.1229 18.331 23.4356 17.1467 23.4356 15.8874C23.4356 11.7006 20.0412 8.3103 15.8586 8.3103C11.676 8.3103 8.27734 11.7006 8.27734 15.8874C8.27734 20.0741 11.6718 23.4644 15.8544 23.4644C17.2222 23.4644 18.5024 23.0975 19.6117 22.4636L23.7234 23.6896Z" fill="#FFCE00"/>
<path d="M23.7232 24.2109C23.6731 24.2109 23.6231 24.2026 23.573 24.19L19.6698 23.0266C18.498 23.6563 17.1844 23.9899 15.8542 23.9899C11.388 23.9899 7.75586 20.3577 7.75586 15.8916C7.75586 11.4254 11.388 7.78906 15.8542 7.78906C20.3204 7.78906 23.9525 11.4212 23.9525 15.8874C23.9525 17.1259 23.6773 18.3186 23.131 19.432L24.2236 23.5562C24.2736 23.7397 24.2194 23.9315 24.0818 24.0649C23.9817 24.1609 23.8524 24.2109 23.719 24.2109H23.7232ZM15.8542 8.83159C11.9635 8.83159 8.79838 11.9967 8.79838 15.8874C8.79838 19.7781 11.9635 22.9432 15.8542 22.9432C17.076 22.9432 18.2854 22.6221 19.3487 22.0091C19.4738 21.9382 19.6198 21.9215 19.7574 21.9632L22.9809 22.9223L22.076 19.507C22.0426 19.3819 22.0593 19.2485 22.1177 19.1317C22.6431 18.1184 22.91 17.0258 22.91 15.8874C22.91 11.9967 19.7449 8.83159 15.8542 8.83159Z" fill="#3D3D3D"/>
</g>
<defs>
<clipPath id="clip0_59_712">
<rect width="22.5185" height="22.5185" fill="white" transform="translate(4.74121 4.74072)"/>
</clipPath>
</defs>
</svg>
