<svg width="54" height="54" viewBox="0 0 54 54" fill="none" xmlns="http://www.w3.org/2000/svg">
<g clip-path="url(#clip0_53_10)">
<path d="M27 54C41.9117 54 54 41.9117 54 27C54 12.0883 41.9117 0 27 0C12.0883 0 0 12.0883 0 27C0 41.9117 12.0883 54 27 54Z" fill="#FFF6F6"/>
<path d="M16.3002 42.81C13.3302 42.81 10.9102 40.3899 10.9102 37.4199V20.59C10.9102 17.62 13.3302 15.2 16.3002 15.2H16.8602V14.58C16.8602 12.71 18.3802 11.2 20.2402 11.2C22.1002 11.2 23.6302 12.72 23.6302 14.58V15.2H30.3802V14.58C30.3802 12.71 31.9002 11.2 33.7602 11.2C35.6202 11.2 37.1402 12.72 37.1402 14.58V15.2H37.7002C40.6702 15.2 43.0902 17.62 43.0902 20.59V37.4199C43.0902 40.3899 40.6702 42.81 37.7002 42.81H16.3002ZM16.3002 17.96C14.8502 17.96 13.6702 19.14 13.6702 20.59V37.4199C13.6702 38.8699 14.8502 40.0499 16.3002 40.0499H37.7002C39.1502 40.0499 40.3302 38.8699 40.3302 37.4199V20.59C40.3302 19.14 39.1502 17.96 37.7002 17.96H37.1402V18.58C37.1402 20.45 35.6202 21.96 33.7602 21.96C31.9002 21.96 30.3802 20.44 30.3802 18.58V17.96H23.6302V18.58C23.6302 20.45 22.1102 21.96 20.2402 21.96C18.3702 21.96 16.8602 20.44 16.8602 18.58V17.96H16.3002ZM33.7602 13.95C33.4202 13.95 33.1402 14.23 33.1402 14.57V18.58C33.1402 18.92 33.4202 19.2 33.7602 19.2C34.1002 19.2 34.3802 18.92 34.3802 18.58V14.57C34.3802 14.23 34.1002 13.95 33.7602 13.95ZM20.2402 13.95C19.9002 13.95 19.6202 14.23 19.6202 14.57V18.58C19.6202 18.92 19.9002 19.2 20.2402 19.2C20.5802 19.2 20.8702 18.92 20.8702 18.58V14.57C20.8702 14.23 20.5902 13.95 20.2402 13.95Z" fill="#FF5F5E"/>
<path d="M30.8102 37.0301C30.5902 37.0301 30.3702 36.9801 30.1702 36.8701L27.0102 35.2101L23.8502 36.8701C23.6502 36.9701 23.4302 37.0301 23.2102 37.0301C22.9202 37.0301 22.6402 36.9401 22.4002 36.7701C21.9702 36.4601 21.7602 35.9401 21.8502 35.4201L22.4502 31.9001L19.8902 29.4101C19.5102 29.0401 19.3802 28.5001 19.5402 27.9901C19.7002 27.4901 20.1402 27.1301 20.6502 27.0501L24.1902 26.5401L25.7702 23.3301C26.0002 22.8601 26.4802 22.5601 27.0102 22.5601C27.5402 22.5601 28.0102 22.8501 28.2502 23.3301L29.8302 26.5301L33.3702 27.0401C33.8902 27.1201 34.3202 27.4801 34.4802 27.9801C34.6402 28.4801 34.5102 29.0301 34.1302 29.4001L31.5702 31.9001L32.1702 35.4201C32.2602 35.9401 32.0502 36.4601 31.6202 36.7701C31.3802 36.9401 31.1002 37.0301 30.8102 37.0301Z" fill="#FF5F5E"/>
</g>
<defs>
<clipPath id="clip0_53_10">
<rect width="54" height="54" fill="white"/>
</clipPath>
</defs>
</svg>
