<svg width="120" height="120" viewBox="0 0 120 120" fill="none" xmlns="http://www.w3.org/2000/svg">
<g clip-path="url(#clip0_26_6353)">
<path d="M71.7588 76.2601C88.8576 76.2601 102.719 62.3988 102.719 45.3001C102.719 28.2014 88.8576 14.3401 71.7588 14.3401C54.6601 14.3401 40.7988 28.2014 40.7988 45.3001C40.7988 62.3988 54.6601 76.2601 71.7588 76.2601Z" fill="url(#paint0_linear_26_6353)"/>
<path d="M88.4207 43.1799L64.5207 29.3799C63.6407 28.8799 62.5607 28.8799 61.6807 29.3799C60.8007 29.8799 60.2607 30.8199 60.2607 31.8399V59.4199C60.2607 60.4399 60.8007 61.3599 61.6807 61.8799C62.1207 62.1399 62.6007 62.2599 63.1007 62.2599C63.6007 62.2599 64.0807 62.1399 64.5207 61.8799L88.4207 48.0799C89.3007 47.5799 89.8407 46.6399 89.8407 45.6199C89.8407 44.5999 89.3007 43.6799 88.4207 43.1599V43.1799Z" fill="url(#paint1_linear_26_6353)"/>
<path d="M67.0993 74.6598C65.3593 72.9198 62.5593 72.9198 60.8393 74.6598C62.5793 72.9198 62.5793 70.1198 60.8393 68.3998C59.0993 66.6798 56.2993 66.6598 54.5793 68.3998C56.3193 66.6598 56.3193 63.8598 54.5793 62.1398C52.8393 60.4198 50.0393 60.3998 48.3193 62.1398L61.0793 49.3798C62.8193 47.6398 62.8193 44.8398 61.0793 43.1198C59.3393 41.3998 56.5393 41.3798 54.8193 43.1198L35.9993 61.9398V54.4798C35.9993 52.0398 34.0193 50.0398 31.5593 50.0398C29.1193 50.0398 27.1193 52.0198 27.1193 54.4798V70.7998L20.2793 77.6398L26.5393 83.8998L32.7993 90.1598L39.0593 96.4198L45.3193 102.68L67.0793 80.9198C68.8193 79.1798 68.8193 76.3798 67.0793 74.6598H67.0993Z" fill="url(#paint2_linear_26_6353)"/>
<path d="M53.0341 96.3754L26.56 69.9013C25.693 69.0344 24.2874 69.0344 23.4205 69.9013L17.9475 75.3743C17.0805 76.2413 17.0805 77.6469 17.9475 78.5139L44.4215 104.988C45.2885 105.855 46.6941 105.855 47.5611 104.988L53.0341 99.515C53.901 98.648 53.9011 97.2424 53.0341 96.3754Z" fill="url(#paint3_linear_26_6353)"/>
</g>
<defs>
<linearGradient id="paint0_linear_26_6353" x1="41.001" y1="15" x2="102.501" y2="76.5" gradientUnits="userSpaceOnUse">
<stop stop-color="#FFE18E"/>
<stop offset="1" stop-color="#FFC453"/>
</linearGradient>
<linearGradient id="paint1_linear_26_6353" x1="75.0507" y1="29.0049" x2="75.0507" y2="62.2599" gradientUnits="userSpaceOnUse">
<stop stop-color="#7B7B7B"/>
<stop offset="1" stop-color="#282828"/>
</linearGradient>
<linearGradient id="paint2_linear_26_6353" x1="44.3318" y1="41.8223" x2="44.3318" y2="102.68" gradientUnits="userSpaceOnUse">
<stop stop-color="#FF5F5E"/>
<stop offset="1" stop-color="#EA3F3E"/>
</linearGradient>
<linearGradient id="paint3_linear_26_6353" x1="39.797" y1="83.1384" x2="31.1845" y2="91.7509" gradientUnits="userSpaceOnUse">
<stop stop-color="#EAEAEA"/>
<stop offset="1" stop-color="#CDCDCD"/>
</linearGradient>
<clipPath id="clip0_26_6353">
<rect width="120" height="120" fill="white"/>
</clipPath>
</defs>
</svg>
