<svg width="21" height="20" viewBox="0 0 21 20" fill="none" xmlns="http://www.w3.org/2000/svg">
<path d="M8 14.1667C8 14.1667 13.8333 15 16.3333 17.5H17.1667C17.6269 17.5 18 17.1269 18 16.6667V11.6142C18.7188 11.4292 19.25 10.7766 19.25 10C19.25 9.22342 18.7188 8.57083 18 8.38583V3.33333C18 2.8731 17.6269 2.5 17.1667 2.5H16.3333C13.8333 5 8 5.83333 8 5.83333H4.66667C3.74619 5.83333 3 6.57952 3 7.5V12.5C3 13.4205 3.74619 14.1667 4.66667 14.1667H5.5L6.33333 18.3333H8V14.1667ZM9.66667 7.21767C10.2361 7.0955 10.9396 6.92661 11.6994 6.70311C13.0979 6.29178 14.875 5.64385 16.3333 4.64548V15.3545C14.875 14.3562 13.0979 13.7082 11.6994 13.2969C10.9396 13.0734 10.2361 12.9045 9.66667 12.7823V7.21767ZM4.66667 7.5H8V12.5H4.66667V7.5Z" fill="white"/>
</svg>
