<svg width="22" height="22" viewBox="0 0 22 22" fill="none" xmlns="http://www.w3.org/2000/svg">
<path d="M3.67066 5.88224L0.698242 2.90982L1.9946 1.61346L4.96702 4.58588H18.9386C19.4449 4.58588 19.8553 4.99629 19.8553 5.50255C19.8553 5.59176 19.8423 5.68049 19.8167 5.76595L17.6167 13.0993C17.5004 13.487 17.1434 13.7525 16.7386 13.7525H5.504V15.5859H15.5874V17.4192H4.58733C4.08106 17.4192 3.67066 17.0088 3.67066 16.5025V5.88224ZM5.04566 21.0859C4.28627 21.0859 3.67066 20.4702 3.67066 19.7109C3.67066 18.9515 4.28627 18.3359 5.04566 18.3359C5.80506 18.3359 6.42066 18.9515 6.42066 19.7109C6.42066 20.4702 5.80506 21.0859 5.04566 21.0859ZM16.0457 21.0859C15.2862 21.0859 14.6707 20.4702 14.6707 19.7109C14.6707 18.9515 15.2862 18.3359 16.0457 18.3359C16.8051 18.3359 17.4207 18.9515 17.4207 19.7109C17.4207 20.4702 16.8051 21.0859 16.0457 21.0859Z" fill="#FF5F5E"/>
</svg>
