<svg width="24" height="24" viewBox="0 0 24 24" fill="none" xmlns="http://www.w3.org/2000/svg">
<path d="M14.8328 20.6852C14.3924 20.1595 14.4506 16.8818 14.4288 16.8452C14.2833 16.5892 12.1071 16.7766 11.5612 16.8635C11.0153 16.772 9.71983 16.5892 9.57427 16.8452C9.55243 16.8818 9.61066 20.1641 9.17033 20.6852C8.73 21.2064 8.10771 21.5904 8.1441 21.7412C8.1805 21.8967 8.32606 21.8509 8.32606 21.8509H15.6734C15.6734 21.8509 15.8226 21.8967 15.8553 21.7412C15.8917 21.5904 15.2694 21.2064 14.8291 20.6852H14.8328Z" fill="white"/>
<path d="M16.0693 21.8572C16.0375 21.8572 16.0057 21.8572 15.9699 21.8498H8.03018C7.74406 21.8833 7.41423 21.7528 7.31091 21.4245C7.18772 21.0366 7.5255 20.8128 7.91891 20.5591C8.12158 20.4286 8.37193 20.2644 8.56665 20.0929C8.63023 20.0071 8.81303 19.5557 8.84482 17.534C8.84879 17.2207 8.84879 17.1572 8.94019 17.0342C9.09914 16.8253 9.28989 16.5753 11.5192 16.8439C12.0517 16.7805 14.6586 16.5045 15.0559 17.0267C15.1513 17.1535 15.1513 17.2169 15.1553 17.534C15.1871 19.5222 15.3619 19.9921 15.4414 20.1003C15.6361 20.2682 15.8785 20.4286 16.0772 20.5591C16.4746 20.8165 16.8164 21.0403 16.6852 21.432C16.6057 21.6894 16.3554 21.8572 16.0653 21.8572H16.0693ZM9.07927 20.921H14.9367C14.8771 20.8725 14.8175 20.824 14.7579 20.7755C14.3724 20.4323 14.2055 19.5595 14.1698 17.672C13.5538 17.6422 12.1511 17.713 11.5907 17.7802C11.547 17.7839 11.5033 17.7839 11.4596 17.7802C10.6251 17.6757 10.1125 17.6571 9.84225 17.6645C9.80649 19.5557 9.64356 20.4323 9.2581 20.7755C9.19849 20.8277 9.13888 20.8762 9.07927 20.9247V20.921Z" fill="#3D3D3D"/>
<path d="M20.1431 17.1522C20.1431 17.3838 19.9624 17.5715 19.7394 17.5715H4.2612C4.03816 17.5715 3.85742 17.3838 3.85742 17.1522V5.1376C3.85742 4.90602 4.03816 4.71436 4.2612 4.71436H19.7394C19.9624 4.71436 20.1431 4.90602 20.1431 5.1376V17.1522Z" fill="#FFE18E"/>
<path d="M20.0729 18.4286H3.92308C3.41338 18.4286 3 18.0215 3 17.5196V5.62726C3 5.12533 3.41338 4.71429 3.92308 4.71429H20.0769C20.5866 4.71429 21 5.12533 21 5.62726V17.5196C21 18.0215 20.5866 18.4286 20.0769 18.4286H20.0729ZM3.99933 17.4405H19.9967V5.70236H3.99933V17.4405Z" fill="#3D3D3D"/>
<path d="M3.85742 17.2148C3.85742 17.4118 4.03816 17.5714 4.2612 17.5714H19.7394C19.9624 17.5714 20.1431 17.4118 20.1431 17.2148V15H3.85742V17.2148Z" fill="white"/>
<path d="M20.0691 18.4286H3.92287C3.41329 18.4286 3 17.9902 3 17.4497V14.6749C3 14.3812 3.2247 14.1429 3.50156 14.1429H20.4984C20.7753 14.1429 21 14.3812 21 14.6749V17.4497C21 17.9902 20.5867 18.4286 20.0771 18.4286H20.0691ZM3.99911 17.3646H19.9929V15.2069H3.99911V17.3646Z" fill="#3D3D3D"/>
<path d="M12.0008 7.28561C11.7643 7.28561 11.5723 7.09361 11.5723 6.85704C11.5723 6.62047 11.7608 6.42847 12.0008 6.42847C12.2374 6.42847 12.4294 6.62047 12.4294 6.85704C12.4294 7.09361 12.2374 7.28561 12.0008 7.28561Z" fill="#3D3D3D"/>
<path d="M11.5711 7.00138L8.14258 4.71436V9.2884L11.5711 11.5715V7.00138Z" fill="white"/>
<path d="M11.9166 12.4286C11.8266 12.4286 11.7407 12.4054 11.6629 12.3629L7.53882 10.1118C7.37926 10.0268 7.28516 9.8643 7.28516 9.69412V5.19589C7.28516 5.02184 7.38335 4.86326 7.53882 4.77817C7.69838 4.69308 7.89068 4.69308 8.05024 4.77817L12.1743 7.02922C12.3339 7.11431 12.428 7.27676 12.428 7.44694V11.9452C12.428 12.1192 12.3298 12.2778 12.1743 12.3629C12.0966 12.4054 12.0066 12.4286 11.9207 12.4286H11.9166ZM8.30391 9.41564L11.4052 11.1059V7.72155L8.30391 6.02747V9.41177V9.41564Z" fill="#3D3D3D"/>
<path d="M11.9978 2.14282L8.14258 4.71204L11.9978 7.28568L15.8569 4.71204L11.9978 2.14282Z" fill="#FF5F5E"/>
<path d="M11.9974 7.28568C11.9058 7.28568 11.8184 7.26385 11.7393 7.22383L7.54324 5.10629C7.3809 5.02624 7.28516 4.87343 7.28516 4.71334C7.28516 4.55325 7.38506 4.40044 7.54324 4.3204L11.7393 2.20286C11.9016 2.12281 12.0973 2.12281 12.2596 2.20286L16.4556 4.3204C16.618 4.40044 16.7137 4.55325 16.7137 4.71334C16.7137 4.87343 16.6138 5.02624 16.4556 5.10629L12.2596 7.22383C12.1805 7.26385 12.0889 7.28568 12.0015 7.28568H11.9974ZM8.84201 4.71334L11.9974 6.30695L15.1527 4.71334L11.9974 3.11973L8.84201 4.71334Z" fill="#3D3D3D"/>
<path d="M15.8563 5.5L12.4277 7.20156V11.7717L15.8563 9.48858V5.5Z" fill="white"/>
<path d="M12.0796 12.4286C11.9896 12.4286 11.9037 12.4054 11.8259 12.3629C11.6664 12.2778 11.5723 12.1154 11.5723 11.9452V7.44694C11.5723 7.27289 11.6705 7.11431 11.8259 7.02922L15.95 4.77817C16.1096 4.69308 16.3019 4.69308 16.4615 4.77817C16.621 4.86326 16.7151 5.02571 16.7151 5.19589V9.69412C16.7151 9.86817 16.6169 10.0268 16.4615 10.1118L12.3374 12.3629C12.2596 12.4054 12.1696 12.4286 12.0837 12.4286H12.0796ZM12.591 7.72542V11.1097L15.6923 9.41951V6.0352L12.591 7.72929V7.72542Z" fill="#3D3D3D"/>
</svg>
