<svg width="32" height="32" viewBox="0 0 32 32" fill="none" xmlns="http://www.w3.org/2000/svg">
<circle cx="16" cy="16" r="16" fill="white"/>
<g clip-path="url(#clip0_59_671)">
<path d="M15.0247 21.4173H17.5559C18.0647 21.4173 18.49 20.9795 18.6151 20.3915H23.5483V10.5042C23.5483 9.87449 23.0354 9.36157 22.4057 9.36157H10.1748C9.54515 9.36157 9.03223 9.87449 9.03223 10.5042V20.3915H13.9655C14.0906 20.9795 14.5159 21.4173 15.0247 21.4173Z" fill="#FF564F"/>
<path d="M17.5515 21.9385H15.0203C14.4031 21.9385 13.8568 21.534 13.5857 20.9127H9.032C8.74427 20.9127 8.51074 20.6792 8.51074 20.3914V10.5041C8.51074 9.58672 9.25719 8.84027 10.1746 8.84027H22.4013C23.3188 8.84027 24.0652 9.58672 24.0652 10.5041V20.3914C24.0652 20.6792 23.8317 20.9127 23.5439 20.9127H18.9902C18.7191 21.534 18.1687 21.9385 17.5557 21.9385H17.5515ZM9.55327 19.8702H13.9652C14.2113 19.8702 14.4239 20.0412 14.474 20.283C14.549 20.6375 14.7784 20.896 15.0244 20.896H17.5557C17.7975 20.896 18.0311 20.6375 18.102 20.283C18.152 20.0412 18.3647 19.8702 18.6107 19.8702H23.0227V10.5041C23.0227 10.1622 22.7433 9.8828 22.4013 9.8828H10.1746C9.83266 9.8828 9.55327 10.1622 9.55327 10.5041V19.8702Z" fill="#3D3D3D"/>
<path d="M18.6111 20.3915C18.486 20.9795 18.0648 21.4173 17.5519 21.4173H15.0206C14.5119 21.4173 14.0865 20.9795 13.9614 20.3915H6.88477V21.8552C6.88477 22.6892 7.42688 23.3689 8.09409 23.3689H24.4784C25.1456 23.3689 25.6877 22.6934 25.6877 21.8552V20.3915H18.6069H18.6111Z" fill="#05BBEF"/>
<path d="M24.4821 23.8902H8.09778C7.14283 23.8902 6.36719 22.9769 6.36719 21.8551V20.3914C6.36719 20.1037 6.60071 19.8702 6.88845 19.8702H13.9693C14.2153 19.8702 14.428 20.0412 14.478 20.283C14.5531 20.6375 14.7824 20.896 15.0285 20.896H17.5597C17.8016 20.896 18.0351 20.6375 18.106 20.283C18.156 20.0412 18.3687 19.8702 18.6148 19.8702H25.6956C25.9833 19.8702 26.2168 20.1037 26.2168 20.3914V21.8551C26.2168 22.9769 25.4412 23.8902 24.4863 23.8902H24.4821ZM7.40971 20.9169V21.8593C7.40971 22.3973 7.72664 22.8518 8.09778 22.8518H24.4821C24.8532 22.8518 25.1702 22.3973 25.1702 21.8593V20.9169H18.9901C18.719 21.5382 18.1686 21.9427 17.5556 21.9427H15.0243C14.4071 21.9427 13.8609 21.5382 13.5898 20.9169H7.40554H7.40971Z" fill="#3D3D3D"/>
<path d="M17.1848 12.168H15.3875C15.0997 12.168 14.8662 11.9345 14.8662 11.6467C14.8662 11.359 15.0997 11.1255 15.3875 11.1255H17.1848C17.4725 11.1255 17.706 11.359 17.706 11.6467C17.706 11.9345 17.4725 12.168 17.1848 12.168Z" fill="#3D3D3D"/>
<path d="M14.312 16.5508L12.8525 13.6943C13.0985 13.2148 13.2444 12.6768 13.2444 12.1013C13.2444 10.1873 11.6932 8.63599 9.77909 8.63599C7.86502 8.63599 6.30957 10.1873 6.30957 12.1013C6.30957 14.0154 7.86085 15.5667 9.77492 15.5667C10.4004 15.5667 10.9842 15.3999 11.493 15.108L14.312 16.5508Z" fill="#FFCE00"/>
<path d="M14.312 17.0721C14.2328 17.0721 14.1494 17.0554 14.0743 17.0137L11.493 15.6918C10.9551 15.9503 10.3671 16.0838 9.77079 16.0838C7.57315 16.0838 5.78418 14.2948 5.78418 12.0971C5.78418 9.89951 7.57315 8.11053 9.77079 8.11053C11.9684 8.11053 13.7574 9.89951 13.7574 12.0971C13.7574 12.6476 13.6448 13.1814 13.428 13.6818L14.7707 16.3089C14.875 16.5091 14.8333 16.7551 14.6748 16.9136C14.5747 17.0137 14.4413 17.0679 14.3079 17.0679L14.312 17.0721ZM11.493 14.5867C11.5764 14.5867 11.6557 14.6075 11.7307 14.6451L13.1152 15.354L12.3896 13.9362C12.3146 13.786 12.3146 13.6067 12.3896 13.4566C12.6106 13.0312 12.719 12.5767 12.719 12.1013C12.719 10.4791 11.3971 9.15723 9.77496 9.15723C8.15279 9.15723 6.83087 10.4791 6.83087 12.1013C6.83087 13.7235 8.15279 15.0454 9.77496 15.0454C10.2837 15.0454 10.7883 14.912 11.2345 14.6576C11.3137 14.6117 11.4055 14.5867 11.493 14.5867Z" fill="#3D3D3D"/>
</g>
<defs>
<clipPath id="clip0_59_671">
<rect width="22.5185" height="22.5185" fill="white" transform="translate(4.74121 4.74109)"/>
</clipPath>
</defs>
</svg>
