<svg width="54" height="54" viewBox="0 0 54 54" fill="none" xmlns="http://www.w3.org/2000/svg">
<g clip-path="url(#clip0_53_22)">
<path d="M54 27C54 12.0883 41.9117 0 27 0C12.0883 0 0 12.0883 0 27C0 41.9117 12.0883 54 27 54C41.9117 54 54 41.9117 54 27Z" fill="white"/>
<path d="M36.3502 11.0701H19.6502C16.8102 11.0701 14.4902 13.3801 14.4902 16.2301V37.7801C14.4902 40.6201 16.8002 42.9401 19.6502 42.9401H36.3502C39.1902 42.9401 41.5102 40.6301 41.5102 37.7801V16.2301C41.5102 13.3901 39.2002 11.0701 36.3502 11.0701ZM17.5102 16.2301C17.5102 15.0501 18.4702 14.1001 19.6502 14.1001H36.3502C37.5302 14.1001 38.4902 15.0601 38.4902 16.2301V37.7801C38.4902 38.9601 37.5302 39.9201 36.3502 39.9201H19.6502C18.4702 39.9201 17.5102 38.9601 17.5102 37.7801V16.2301Z" fill="#FF5F5E"/>
<path d="M24.9698 20.5899H31.0298C31.6998 20.5899 32.2398 20.0499 32.2398 19.3799C32.2398 18.7099 31.6998 18.1699 31.0298 18.1699H24.9698C24.2998 18.1699 23.7598 18.7099 23.7598 19.3799C23.7598 20.0499 24.2998 20.5899 24.9698 20.5899Z" fill="#FF5F5E"/>
<path d="M22.3399 26.8199H33.6699C34.3399 26.8199 34.8799 26.2799 34.8799 25.6099C34.8799 24.9399 34.3399 24.3999 33.6699 24.3999H22.3399C21.6699 24.3999 21.1299 24.9399 21.1299 25.6099C21.1299 26.2799 21.6699 26.8199 22.3399 26.8199Z" fill="#FF5F5E"/>
<path d="M33.6601 28.49H22.3301C21.6601 28.49 21.1201 29.03 21.1201 29.7C21.1201 30.37 21.6601 30.91 22.3301 30.91H33.6601C34.3301 30.91 34.8701 30.37 34.8701 29.7C34.8701 29.03 34.3301 28.49 33.6601 28.49Z" fill="#FF5F5E"/>
<path d="M33.6601 32.5801H22.3301C21.6601 32.5801 21.1201 33.1201 21.1201 33.7901C21.1201 34.4601 21.6601 35.0001 22.3301 35.0001H33.6601C34.3301 35.0001 34.8701 34.4601 34.8701 33.7901C34.8701 33.1201 34.3301 32.5801 33.6601 32.5801Z" fill="#FF5F5E"/>
</g>
<defs>
<clipPath id="clip0_53_22">
<rect width="54" height="54" fill="white"/>
</clipPath>
</defs>
</svg>
