<svg width="120" height="120" viewBox="0 0 120 120" fill="none" xmlns="http://www.w3.org/2000/svg">
<g clip-path="url(#clip0_26_6369)">
<path d="M95.9396 63.1802H75.5796C74.1196 63.1802 72.9196 64.3602 72.9196 65.8402V73.8002H49.8996C48.4396 73.8002 47.2396 74.9802 47.2396 76.4602V84.4202H24.2196C22.7596 84.4202 21.5596 85.6002 21.5596 87.0802V101.18C21.5596 102.64 22.7396 103.84 24.2196 103.84H95.8996C97.3596 103.84 98.5596 102.66 98.5596 101.18V65.8402C98.5596 64.3802 97.3796 63.1802 95.8996 63.1802H95.9396Z" fill="url(#paint0_linear_26_6369)"/>
<path d="M50.7611 22.3599C42.5211 30.5999 42.5211 43.9599 50.7611 52.1999C59.0011 60.4399 72.3611 60.4399 80.6011 52.1999C88.8411 43.9599 88.8411 30.5999 80.6011 22.3599C72.3611 14.1199 59.0011 14.1199 50.7611 22.3599Z" fill="url(#paint1_linear_26_6369)"/>
<path d="M55.2412 26.8199C49.4612 32.5999 49.4612 41.9599 55.2412 47.7199C61.0212 53.4999 70.3812 53.4999 76.1412 47.7199C81.9212 41.9399 81.9212 32.5799 76.1412 26.8199C70.3612 21.0399 61.0012 21.0399 55.2412 26.8199Z" fill="white"/>
<path d="M49.4993 50.7197L41.7393 58.4197L44.5393 61.2197L52.2993 53.5197L49.4993 50.7197Z" fill="#959595"/>
<path d="M21.8801 75.1399C21.1801 75.8399 21.2401 77.0199 22.0201 77.7999L25.1601 80.9399C25.9401 81.7199 27.1201 81.7799 27.8201 81.0799L49.5201 59.3799C50.2201 58.6799 50.1601 57.4999 49.3801 56.7199L46.2401 53.5799C45.4601 52.7999 44.2801 52.7399 43.5801 53.4399L21.8801 75.1399Z" fill="url(#paint2_linear_26_6369)"/>
</g>
<defs>
<linearGradient id="paint0_linear_26_6369" x1="22.002" y1="63" x2="98.502" y2="103.5" gradientUnits="userSpaceOnUse">
<stop stop-color="#FFE18E"/>
<stop offset="1" stop-color="#FFC453"/>
</linearGradient>
<linearGradient id="paint1_linear_26_6369" x1="44.502" y1="16.5" x2="86.502" y2="58.5" gradientUnits="userSpaceOnUse">
<stop stop-color="#FF5F5D"/>
<stop offset="1" stop-color="#EA3F3E"/>
</linearGradient>
<linearGradient id="paint2_linear_26_6369" x1="35.7001" y1="52.9524" x2="35.7001" y2="81.5675" gradientUnits="userSpaceOnUse">
<stop stop-color="#EAEAEA"/>
<stop offset="1" stop-color="#CDCDCD"/>
</linearGradient>
<clipPath id="clip0_26_6369">
<rect width="120" height="120" fill="white"/>
</clipPath>
</defs>
</svg>
