<svg width="120" height="120" viewBox="0 0 120 120" fill="none" xmlns="http://www.w3.org/2000/svg">
<g clip-path="url(#clip0_26_6361)">
<path d="M100.601 26.1201H19.4014C17.1922 26.1201 15.4014 27.911 15.4014 30.1201V78.1001C15.4014 80.3093 17.1922 82.1001 19.4014 82.1001H100.601C102.811 82.1001 104.601 80.3093 104.601 78.1001V30.1201C104.601 27.911 102.811 26.1201 100.601 26.1201Z" fill="url(#paint0_linear_26_6361)"/>
<path d="M104.601 89.8799C104.601 92.0799 102.801 93.8799 100.601 93.8799H19.4014C17.2014 93.8799 15.4014 92.0799 15.4014 89.8799V37.9199H104.581V89.8999L104.601 89.8799Z" fill="url(#paint1_linear_26_6361)"/>
<path d="M60.0013 90.5398C73.6096 90.5398 84.6413 79.5081 84.6413 65.8998C84.6413 52.2915 73.6096 41.2598 60.0013 41.2598C46.393 41.2598 35.3613 52.2915 35.3613 65.8998C35.3613 79.5081 46.393 90.5398 60.0013 90.5398Z" fill="white"/>
<path d="M62.0192 62.1402H57.9992C56.4392 62.1402 55.1792 60.8802 55.1792 59.3202C55.1792 57.7602 56.4392 56.5002 57.9992 56.5002H62.0192C63.5792 56.5002 64.8392 57.7602 64.8392 59.3202C64.8392 60.7002 65.9592 61.8202 67.3392 61.8202C68.7192 61.8202 69.8392 60.7002 69.8392 59.3202C69.8392 55.1602 66.5592 51.7802 62.4392 51.5402C62.4392 51.4202 62.4992 51.3202 62.4992 51.2002V48.2402C62.4992 46.8602 61.3792 45.7402 59.9992 45.7402C58.6192 45.7402 57.4992 46.8602 57.4992 48.2402V51.2002C57.4992 51.3202 57.5592 51.4202 57.5592 51.5402C53.4392 51.7602 50.1592 55.1402 50.1592 59.3002C50.1592 63.4602 53.6592 67.1202 57.9792 67.1202H61.9992C63.5592 67.1202 64.8192 68.3802 64.8192 69.9402C64.8192 71.5002 63.5592 72.7602 61.9992 72.7602H57.9792C56.4192 72.7602 55.1592 71.5002 55.1592 69.9402C55.1592 68.5602 54.0392 67.4402 52.6592 67.4402C51.2792 67.4402 50.1592 68.5602 50.1592 69.9402C50.1592 74.1002 53.4392 77.4802 57.5592 77.7002C57.5592 77.8202 57.4992 77.9202 57.4992 78.0402V81.0002C57.4992 82.3802 58.6192 83.5002 59.9992 83.5002C61.3792 83.5002 62.4992 82.3802 62.4992 81.0002V78.0402C62.4992 77.9202 62.4392 77.8202 62.4392 77.7002C66.5392 77.4802 69.8392 74.1002 69.8392 69.9402C69.8392 65.7802 66.3392 62.1202 62.0192 62.1202V62.1402Z" fill="url(#paint2_linear_26_6361)"/>
</g>
<defs>
<linearGradient id="paint0_linear_26_6361" x1="15" y1="25.5001" x2="105" y2="93.0001" gradientUnits="userSpaceOnUse">
<stop stop-color="#93DD9B"/>
<stop offset="1" stop-color="#469339"/>
</linearGradient>
<linearGradient id="paint1_linear_26_6361" x1="15" y1="37.4999" x2="105" y2="94.4999" gradientUnits="userSpaceOnUse">
<stop stop-color="#FFE18E"/>
<stop offset="1" stop-color="#FFC453"/>
</linearGradient>
<linearGradient id="paint2_linear_26_6361" x1="59.9992" y1="45.7402" x2="59.9992" y2="83.5002" gradientUnits="userSpaceOnUse">
<stop stop-color="#FF5F5D"/>
<stop offset="1" stop-color="#EA3F3E"/>
</linearGradient>
<clipPath id="clip0_26_6361">
<rect width="120" height="120" fill="white"/>
</clipPath>
</defs>
</svg>
