<svg width="127" height="22" viewBox="0 0 127 22" fill="none" xmlns="http://www.w3.org/2000/svg">
<g clip-path="url(#clip0_105_1517)">
<path d="M0.370361 1.96265H4.6628V18.3507H13.1512V21.7608H0.370361V1.96265Z" fill="white"/>
<path d="M20.7474 18.6144C21.7602 18.6144 22.749 18.2219 23.2312 16.7744H27.4272C26.5591 20.2336 23.7377 22 20.7474 22C15.9003 22 13.6335 18.639 13.6335 14.4683C13.6335 10.2977 15.9003 6.8631 20.7474 6.8631C25.2569 6.8631 27.4755 10.1751 27.4755 13.9777C27.4755 14.4193 27.4513 15.0817 27.3549 15.9403H18.0707C18.4324 17.6822 19.3729 18.6144 20.7474 18.6144ZM18.1671 12.5057H22.9901C22.7731 11.1073 21.9049 10.2977 20.7474 10.2977C19.5176 10.2977 18.6012 11.0828 18.1671 12.5057Z" fill="white"/>
<path d="M27.9578 10.5737V7.11456H30.6104V3.18927H34.8546V7.11456H37.8448V10.5737H34.8546V17.7374C34.8546 18.2771 35.6263 19.0621 38.5683 17.6638V21.4418C34.8305 22.4968 30.6104 22.2514 30.6104 17.6392V10.5737H27.9578Z" fill="white"/>
<path d="M39.774 0H44.3558V3.18929C44.3558 4.63674 43.8494 6.05966 42.7883 7.60524H39.4122C40.7144 5.81433 41.1244 5.02927 41.2691 4.17062H39.774V0Z" fill="white"/>
<path d="M45.9956 16.5353H50.3604C50.481 18.1054 51.2526 18.6206 52.5066 18.6206C53.8812 18.6206 54.6769 18.2035 54.6769 17.5166C54.6769 16.3145 52.0725 15.9465 51.3491 15.7502C49.1305 15.1369 46.5261 14.2292 46.5261 11.506C46.5261 8.12045 49.9263 6.86926 52.6272 6.86926C55.328 6.86926 58.2942 8.04685 58.7041 11.9476H54.3876C54.2911 10.7455 53.64 10.3039 52.5548 10.3039C51.4697 10.3039 50.8909 10.7945 50.8909 11.4079C50.8909 12.1929 52.7719 12.5119 53.2783 12.6345C54.6046 13.0025 55.8827 13.346 57.0161 13.9838C58.1977 14.6708 59.09 15.6766 59.09 17.2713C59.09 20.5096 56.1238 22.0061 52.3619 22.0061C49.3717 22.0061 46.3332 20.387 45.9956 16.5353Z" fill="white"/>
<path d="M72.6666 13.8857H71.075V21.7608H66.7826V1.96265H73.8965C77.6101 1.96265 81.0103 3.3365 81.0103 7.92417C81.0103 11.0399 79.3946 12.7081 77.152 13.4196L81.8302 21.7608H76.9591L72.6666 13.8857ZM71.075 10.4265H74.1376C75.2951 10.4265 76.7179 10.034 76.7179 7.92417C76.7179 5.81433 75.2951 5.4218 74.1376 5.4218H71.075V10.4265Z" fill="white"/>
<path d="M89.3299 18.6144C90.3428 18.6144 91.3315 18.2219 91.8138 16.7744H96.0098C95.1416 20.2336 92.3202 22 89.3299 22C84.4829 22 82.2161 18.639 82.2161 14.4683C82.2161 10.2977 84.4829 6.8631 89.3299 6.8631C93.8394 6.8631 96.058 10.1751 96.058 13.9777C96.058 14.4193 96.0339 15.0817 95.9374 15.9403H86.6532C87.0149 17.6822 87.9554 18.6144 89.3299 18.6144ZM86.7497 12.5057H91.5726C91.3556 11.1073 90.4875 10.2977 89.3299 10.2977C88.1001 10.2977 87.1837 11.0828 86.7497 12.5057Z" fill="white"/>
<path d="M102.666 22C99.7958 22 96.7815 20.6261 96.7815 17.535C96.7815 13.1681 100.905 12.0641 104.329 12.0641H105.945C105.776 10.911 105.149 10.2977 103.751 10.2977C102.593 10.2977 101.942 10.494 101.749 11.9414H97.2879C97.8425 8.23695 100.688 6.8631 103.63 6.8631C106.982 6.8631 110.213 8.11428 110.213 12.4321V17.952C110.213 18.5163 110.238 19.8411 110.382 21.7547H105.993V21.2395C105.053 21.7056 103.895 22 102.666 22ZM101.074 17.3632C101.074 18.1728 101.677 18.6144 102.666 18.6144C104.498 18.6144 105.993 17.7067 105.993 16.2838V15.4987H104.064C102.593 15.4987 101.074 16.1611 101.074 17.3632Z" fill="white"/>
<path d="M119.184 22C114.337 22 112.022 18.6389 112.022 14.4683C112.022 10.2977 114.337 6.86309 119.184 6.86309C120.293 6.86309 121.282 7.13295 122.126 7.55001V1.22662H126.37V21.7546H122.126V21.313C121.282 21.7301 120.293 22 119.184 22ZM116.314 14.4683C116.314 17.1179 117.4 18.6144 119.184 18.6144C120.969 18.6144 122.054 17.1179 122.054 14.4683C122.054 11.8188 120.969 10.2977 119.184 10.2977C117.4 10.2977 116.314 11.8188 116.314 14.4683Z" fill="white"/>
</g>
<defs>
<clipPath id="clip0_105_1517">
<rect width="126" height="22" fill="white" transform="translate(0.370361)"/>
</clipPath>
</defs>
</svg>
