<svg width="132" height="68" viewBox="0 0 132 68" fill="none" xmlns="http://www.w3.org/2000/svg">
<g clip-path="url(#clip0_31_3665)">
<path d="M82.3808 53.3989C82.1968 53.3989 81.9247 53.4259 81.5759 53.4778C81.0009 53.5644 80.5409 53.7299 80.2094 53.9705C79.8357 54.2457 79.6766 54.5825 79.7341 54.9712C79.8146 55.5216 80.242 55.8007 80.999 55.8007C81.1887 55.8007 81.4015 55.7834 81.6333 55.7487C82.7104 55.589 82.9212 55.435 82.9097 55.2541L82.7717 53.5779C82.7622 53.3989 82.4938 53.3989 82.3789 53.3989H82.3808Z" fill="#4456A2"/>
<path d="M61.5058 51.4706C61.3985 51.461 61.2912 51.4552 61.1877 51.4552C61.0305 51.4552 60.8715 51.4667 60.7162 51.4898C60.63 51.5033 60.5667 51.5264 60.5227 51.5649C60.4671 51.613 60.4422 51.6784 60.4537 51.7535L60.8772 54.9828C60.8945 55.1002 60.9826 55.1695 61.111 55.1695C61.1321 55.1695 61.157 55.1695 61.1819 55.1637L61.2279 55.156C61.9505 54.9655 62.4928 54.6595 62.8531 54.2457C63.2096 53.8416 63.3552 53.3874 63.2824 52.8986C63.1598 52.0653 62.5618 51.5841 61.5077 51.4687L61.5058 51.4706Z" fill="#4456A2"/>
<path d="M70.5029 54.2822L72.8468 53.8684C73.347 53.7741 73.2301 52.987 73.1917 52.7291C73.0844 52.0055 72.6935 51.6379 72.0303 51.6379C71.9326 51.6379 71.8272 51.6456 71.716 51.663C71.0798 51.7573 70.6217 52.1114 70.3553 52.7118C70.1579 53.1564 70.0947 53.6182 70.1637 54.0859C70.1828 54.2148 70.2768 54.2899 70.4224 54.2899C70.4473 54.2899 70.4742 54.288 70.5029 54.2841V54.2822Z" fill="#4456A2"/>
<path d="M92.0829 50.4102C92.0599 50.4102 92.0331 50.4102 92.0043 50.4159C90.2891 50.6719 89.5072 51.3916 89.6796 52.556C89.8004 53.37 90.2987 53.7838 91.1592 53.7838C91.3125 53.7838 91.4792 53.7703 91.6555 53.7434C92.4011 53.6318 92.6847 53.5105 92.6636 53.3084L92.3263 50.6026C92.3167 50.5429 92.2765 50.4102 92.081 50.4102H92.0829Z" fill="#4456A2"/>
<path d="M118.164 45.7222C118.141 45.7222 118.114 45.7222 118.087 45.7279C117.321 45.8415 116.734 46.1032 116.343 46.5016C115.973 46.8769 115.826 47.3291 115.902 47.8468C116.019 48.6358 116.548 49.0361 117.474 49.0361C117.66 49.0361 117.867 49.0188 118.087 48.9861C118.651 48.9014 118.869 48.7956 118.842 48.6166L118.409 45.9031C118.398 45.8453 118.352 45.7222 118.166 45.7222H118.164Z" fill="#4456A2"/>
<path d="M39.8086 45.8875L47.0932 67.9999L130.757 57.7713L131.999 33.9133L39.8086 45.8856V45.8875ZM64.7459 59.69L61.6738 57.0476C61.6182 56.9957 61.5492 56.9687 61.4687 56.9687C61.4515 56.9687 61.4342 56.9687 61.4151 56.9726C61.1659 57.0092 61.1525 57.1708 61.1602 57.2382L61.5339 59.9729L58.0938 60.6811L56.3632 49.3805C56.3632 49.3805 56.369 49.3766 56.3728 49.3766C56.7925 49.1746 57.7814 48.9552 59.3165 48.7261C60.0946 48.6107 60.821 48.551 61.4764 48.551C62.9847 48.551 64.1844 48.8628 65.043 49.4748C65.9265 50.106 66.4478 50.9201 66.5915 51.8958C66.7985 53.2987 66.2408 54.5997 64.9337 55.7621C64.8916 55.8044 64.8418 55.8641 64.8513 55.9353C64.8609 56.0007 64.8724 56.0816 66.6816 57.5519C67.9158 58.5545 68.3029 58.9067 68.4122 59.028L64.7459 59.69ZM75.026 58.1427C74.52 58.2909 74.1137 58.389 73.8147 58.4352C73.3395 58.5064 72.8833 58.5411 72.4579 58.5411C71.308 58.5411 70.3229 58.2793 69.5314 57.7616C68.5827 57.1362 68.0135 56.2317 67.843 55.0731C67.6782 53.9646 67.7912 52.8907 68.1745 51.8823C68.6996 50.5063 69.6694 49.7038 71.0588 49.4979C71.3482 49.4555 71.6261 49.4324 71.8848 49.4324C73.717 49.4324 74.7634 50.4871 75.0835 52.654C75.118 52.883 75.1122 53.2352 75.0662 53.6971C74.9991 54.3437 74.8841 54.5497 74.8132 54.6151L70.664 55.1078C70.5548 55.1193 70.4781 55.1559 70.4321 55.2155C70.4072 55.2482 70.3785 55.306 70.3919 55.3887C70.413 55.535 70.5165 55.7371 70.7081 56.0065C71.1298 56.6108 71.7833 56.9168 72.6476 56.9168C72.8546 56.9168 73.075 56.8995 73.3069 56.8648C73.9317 56.7724 74.681 56.5242 75.5338 56.1277C75.5626 56.2163 75.6162 56.4087 75.7178 56.8321C75.8271 57.3017 75.8941 57.6134 75.9191 57.7636C75.9056 57.7867 75.7964 57.9137 75.0279 58.1446L75.026 58.1427ZM85.3654 57.0842L83.0561 57.4441C83.0503 57.3671 83.0426 57.2401 83.0388 57.0746C83.0331 56.8918 83.0254 56.7609 83.012 56.6743C83.0043 56.6166 82.9621 56.4838 82.7686 56.4838C82.7456 56.4838 82.7187 56.4857 82.69 56.4895C82.6651 56.4934 82.6344 56.5049 82.5884 56.5242C81.818 56.8629 81.0476 57.0919 80.2982 57.2035C79.913 57.2613 79.5508 57.2901 79.2192 57.2901C78.5849 57.2901 78.0444 57.1824 77.6113 56.9726C76.9559 56.6531 76.5841 56.1489 76.4787 55.4272C76.3522 54.5728 76.7604 53.8568 77.7301 53.2352C78.5849 52.6964 79.7405 52.3153 81.1683 52.1017C81.2967 52.0825 81.5018 52.0651 81.7739 52.0517C82.0537 52.0363 82.253 52.0209 82.3814 52.0016C82.4581 51.9901 82.5539 51.9362 82.5846 51.7437C82.6038 51.6244 82.5961 51.4589 82.5635 51.2395C82.5156 50.922 82.3355 50.6583 82.0269 50.4582C81.772 50.2908 81.4769 50.2061 81.1453 50.2061C81.0418 50.2061 80.9307 50.2138 80.8195 50.2311C80.1852 50.3254 79.729 50.6372 79.4665 51.1587C79.455 51.1933 79.4358 51.2357 79.3917 51.3088L76.7642 52.0113C77.3353 50.1888 78.56 49.1322 80.4094 48.857C80.8808 48.7858 81.3235 48.7512 81.7222 48.7512C83.6214 48.7512 84.6602 49.5267 84.8959 51.1221C84.9725 51.6341 85.0799 52.7272 85.2178 54.3707C85.3865 56.3683 85.3865 56.936 85.3654 57.0842ZM93.0314 56.4087C93.0122 56.3625 92.9758 56.224 92.9662 55.8275C92.9624 55.4176 92.8474 55.2078 92.6232 55.2078C92.6059 55.2078 92.5887 55.2078 92.5714 55.2117C92.512 55.2213 92.466 55.2348 92.4315 55.2559C91.9965 55.5004 91.5173 55.6639 91.0095 55.7409C90.6933 55.7871 90.3866 55.8121 90.0972 55.8121C89.0949 55.8121 88.2344 55.5254 87.5425 54.9615C86.8028 54.3572 86.3543 53.5643 86.2125 52.6078C86.0554 51.5455 86.3447 50.564 87.0711 49.6865C87.8913 48.703 89.1237 48.0834 90.7354 47.8428C90.837 47.8274 90.9673 47.8197 91.1264 47.8197C91.1781 47.8197 91.2337 47.8197 91.2912 47.8216C91.4234 47.8255 91.5231 47.8274 91.5959 47.8274C91.663 47.8274 91.7071 47.8255 91.7243 47.8216C91.9907 47.7812 91.9984 47.6234 91.9888 47.558C91.8431 46.3321 91.7147 45.0677 91.6093 43.7975L94.7715 43.403L95.8179 55.9796L93.0333 56.4106L93.0314 56.4087ZM96.3258 45.4853C96.2721 45.1158 96.3833 44.7713 96.6689 44.4326C96.9851 44.0593 97.4316 43.8264 98.0008 43.7417C98.1446 43.7205 98.2845 43.709 98.4167 43.709C98.8268 43.709 99.1967 43.8129 99.5148 44.0169C99.902 44.2575 100.117 44.5577 100.172 44.9349C100.228 45.3044 100.115 45.6508 99.8311 45.9953C99.5168 46.3744 99.0683 46.6092 98.501 46.6939C98.363 46.7151 98.2251 46.7247 98.0947 46.7247C97.6827 46.7247 97.309 46.6188 96.9851 46.411C96.598 46.1666 96.3833 45.8625 96.3258 45.4834V45.4853ZM98.0851 54.9557C97.7766 52.7349 97.4891 50.4659 97.2266 48.2123L100.331 47.7793L101.106 54.49L98.0871 54.9557H98.0851ZM108.94 52.5751C108.679 50.5621 108.492 49.1746 108.367 48.3374C108.191 47.15 107.708 46.5457 106.928 46.5457C106.849 46.5457 106.765 46.5515 106.681 46.5649C105.703 46.7112 105.122 47.1769 104.952 47.9525L104.948 47.9698L104.956 48.0179L105.749 52.8407L102.805 53.3257L101.55 45.1678L104.471 44.7309C104.477 44.7424 104.482 44.7617 104.486 44.7906C104.49 44.8194 104.496 44.881 104.496 45.01C104.496 45.1235 104.5 45.2043 104.507 45.2563C104.546 45.5122 104.71 45.5507 104.806 45.5507C104.825 45.5507 104.847 45.5507 104.87 45.545C104.921 45.5373 104.996 45.5045 105.297 45.2082C105.54 44.9657 105.78 44.7732 106.008 44.6366C106.374 44.4134 106.796 44.2632 107.261 44.194C107.518 44.1555 107.765 44.1362 107.997 44.1362C109.889 44.1362 110.991 45.3679 111.366 47.9005C111.447 48.4394 111.594 49.9136 111.811 52.2865L108.94 52.5694V52.5751ZM122.103 52.6714C122.028 53.5585 121.683 54.3322 121.075 54.975C120.362 55.7217 119.35 56.1989 118.07 56.3895C117.562 56.4645 117.168 56.503 116.897 56.503C116.564 56.503 116.518 56.4434 116.518 56.4434L116.154 53.9742C116.25 53.9627 116.386 53.9531 116.562 53.9434C116.771 53.9338 116.93 53.9203 117.037 53.905C117.827 53.7876 118.436 53.5547 118.848 53.216C119.274 52.8638 119.452 52.4192 119.373 51.8919L119.201 50.7315C119.193 50.6776 119.153 50.5506 118.954 50.5506C118.927 50.5506 118.896 50.5525 118.864 50.5583C118.829 50.564 118.73 50.591 118.252 50.7623C117.907 50.8873 117.616 50.9663 117.39 51.0009C117.047 51.0529 116.713 51.0779 116.399 51.0779C115.38 51.0779 114.508 50.8027 113.806 50.26C113.038 49.6653 112.574 48.8647 112.428 47.8832C112.277 46.8536 112.545 45.9222 113.229 45.1158C114.002 44.2036 115.19 43.6224 116.761 43.3876C116.871 43.3722 117.032 43.3626 117.242 43.3626C117.465 43.3626 117.614 43.3549 117.697 43.3433C117.794 43.3279 117.867 43.2875 117.911 43.2182C117.953 43.1547 117.967 43.0701 117.951 42.9681C117.944 42.918 117.927 42.8449 117.898 42.741C117.865 42.6255 117.854 42.5716 117.85 42.5466C117.846 42.5216 117.846 42.5043 117.85 42.4927L120.878 42.0559C120.922 42.1925 121.02 42.6621 121.24 44.1497C121.432 45.4507 121.646 47.1461 121.876 49.1938L122.07 50.9316C122.131 51.5898 122.141 52.1768 122.101 52.6752L122.103 52.6714Z" fill="#4456A2"/>
<path d="M11.1137 51.8554L118.278 38.026L125.183 0H0L11.1137 51.8554Z" fill="#EC1C24"/>
<path d="M36.317 14.1547C34.7397 14.1316 33.9386 15.1977 33.9348 16.3621C33.9693 17.8458 35.2744 18.2865 35.7899 18.327C36.3074 18.3732 37.9211 18.2404 38.2488 16.5699C38.5746 14.8937 37.1123 14.2124 36.3151 14.1547H36.317ZM37.1698 20.5132C36.6198 20.1572 35.8915 20.0917 35.4124 20.0359C33.3253 20.0609 33.7776 21.0463 33.8581 21.231C33.9367 21.4158 33.8888 23.1979 33.8888 23.1979C33.8888 23.1979 33.7891 27.8263 33.793 28.2689C33.7968 28.7134 33.6416 30.5802 33.8294 31.1133C34.0114 31.6464 34.1858 31.731 35.0425 31.8581C35.8992 31.9909 36.8613 31.9909 36.9897 31.5232C37.1238 31.0498 36.9188 30.79 36.8728 30.3955C36.7137 29.2908 36.9437 25.6073 36.9878 24.6605C37.0357 23.7098 37.2752 21.945 37.3155 21.6871C37.3576 21.4235 37.8157 20.9366 37.1698 20.5113V20.5132Z" fill="white"/>
<path d="M48.4178 28.875C48.3449 27.3816 48.3239 23.5018 48.3239 23.5018C48.3239 23.5018 48.3871 21.8795 48.3986 21.6793C48.4178 21.483 48.9678 20.796 48.2587 20.3668C47.5438 19.9319 46.5799 20.2128 46.3518 20.2436C46.1237 20.2706 45.9014 19.9819 45.9014 19.9819C45.9014 19.9819 45.7845 19.7991 45.0543 19.3564C43.4387 18.5328 42.4287 18.808 41.6372 19.1371C39.4831 20.2321 38.5977 23.7404 38.5977 23.7404C38.5977 23.7404 37.7928 27.0929 38.3102 28.6729C38.8315 30.2568 40.104 31.0785 41.4667 31.5308C42.8235 31.9927 44.0942 31.4577 44.397 31.2825C44.7055 31.1112 45.5105 30.5839 45.5105 30.5839C45.5105 30.5839 45.6159 31.7848 45.5641 32.3506C45.5105 32.9087 45.9742 35.7955 44.5465 36.5268C43.1263 37.2542 41.7982 35.6107 41.6851 35.4895C41.574 35.3644 41.39 35.145 41.5146 34.7851C41.6353 34.4291 41.5912 34.15 41.436 33.9768C41.2769 33.8075 40.8381 33.4957 39.4678 33.9826C38.1071 34.4733 38.1876 34.9698 38.2259 35.3394C38.2623 35.7108 38.6283 36.5826 39.0308 36.9675C40.8074 38.9959 42.1355 39.2865 44.0654 39.2287C44.9029 39.196 46.9632 38.1183 47.8141 36.7423C48.184 36.1476 48.3603 35.4221 48.4273 34.6966C48.642 32.2871 48.4925 30.3645 48.4197 28.8788L48.4178 28.875ZM45.3246 26.6426C45.3054 27.7569 43.891 29.3388 42.4249 29.2406C41.4513 29.1791 41.1696 27.6895 41.3076 25.994C41.4475 24.2985 42.2697 21.5427 43.7895 21.7678C43.7895 21.7678 44.7381 21.8371 45.1291 23.0823C45.2249 23.3247 45.4165 26.4328 45.3246 26.6426Z" fill="white"/>
<path d="M50.052 11.2352C50.052 11.2352 50.0635 10.6328 49.9505 10.5001C49.8355 10.3711 49.4158 9.9535 49.96 9.50124C50.5062 9.05668 51.9647 8.97008 52.624 9.1991C53.2871 9.43388 53.5036 9.8438 53.4193 10.3788C53.3407 10.91 53.3177 11.6355 53.2487 12.2148C53.1759 12.7921 53.013 15.5076 53.013 15.5076L52.8137 20.9943L52.8578 21.9912C52.8578 21.9912 54.8087 19.9647 57.0434 20.2418C58.2891 20.4805 59.5022 21.3561 59.5022 21.3561C59.5022 21.3561 60.6885 21.9566 60.9453 24.5084C61.1351 26.4252 61.0488 28.4094 61.0488 28.4094C61.0488 28.4094 61.0757 30.3377 60.9913 30.8265C60.907 31.3192 60.3896 31.402 60.3896 31.402C60.3896 31.402 59.6575 31.6483 58.4673 31.5155C57.281 31.3866 57.5493 30.4301 57.7122 29.845C57.8004 29.4005 57.8004 26.2578 57.764 25.6208C57.7295 24.9857 57.4842 22.7937 56.294 22.8072C55.1058 22.8168 54.3181 24.0793 53.9597 24.7875C53.6033 25.4938 53.381 25.8517 53.2698 26.3752C53.1299 27.0642 53.128 27.9456 53.0973 28.3555C53.0647 28.7577 53.0322 30.5244 53.2296 31.6137C53.4231 32.0428 53.5266 31.8061 53.5535 32.2102C53.5803 32.6086 53.1836 32.8261 51.6178 32.8242C50.052 32.828 50.1651 31.5886 50.144 31.3019C50.1153 31.0171 50.0961 28.9867 50.0961 28.9867L49.9965 23.1902L49.9255 18.1576L50.052 13.7236L50.0482 11.2391L50.052 11.2352Z" fill="white"/>
<path d="M64.0008 9.26439C64.9552 9.3356 65.8579 9.78401 65.8981 10.448C65.9 10.9445 65.7314 10.9926 65.6988 11.2139C65.6605 11.4198 65.58 12.8401 65.5282 13.4021C65.4746 13.9679 65.4152 18.5866 65.4152 18.5866L65.4305 24.1157L65.5244 28.2014L65.695 32.5354C65.695 32.5354 65.7908 33.0453 66.0763 33.4379C66.3696 33.8286 66.3772 34.1019 66.1185 34.2828C65.8617 34.4579 65.2638 34.712 64.1694 34.6003C62.6305 34.4367 62.4848 33.69 62.5021 33.3629C62.5174 33.0338 62.5596 31.498 62.5596 31.498L62.5117 26.9293C62.5117 26.9293 62.4216 21.4176 62.3852 20.6612C62.3507 19.903 62.4024 15.2438 62.4024 15.2438C62.4024 15.2438 62.3679 11.3929 62.3641 11.0696C62.3641 10.7501 62.0632 10.5846 62.1284 10.0015C62.1935 9.42605 63.0387 9.18934 63.9989 9.26632L64.0008 9.26439Z" fill="white"/>
<path d="M68.2783 17.3088C69.1331 17.4031 70.2178 17.2742 70.5398 15.7192C70.9154 13.8697 69.4934 13.4117 68.5831 13.4156C66.7892 13.4252 66.5363 14.857 66.611 15.8366C66.6857 16.8161 67.4255 17.2126 68.2764 17.3069L68.2783 17.3088ZM70.5551 29.9238C70.4248 29.6717 70.3347 29.3619 70.2772 28.7287C70.2236 28.0917 70.1354 25.4821 70.1642 24.7643C70.1891 24.0464 70.3022 22.2451 70.3462 21.6832C70.3903 21.1154 70.8024 20.3187 70.3999 19.8626C70.0032 19.4103 68.7019 19.1371 67.9947 19.1659C67.2856 19.191 66.7624 19.2949 66.7241 19.7529C66.6838 20.2071 66.8697 20.642 66.8697 20.642C66.8697 20.642 66.9866 21.4368 66.9732 22.1066C66.9579 22.7744 67.0039 26.325 67.0039 26.325C67.0039 26.325 67.0039 29.564 67.0345 29.9258C67.0671 30.2876 66.7068 30.8726 68.746 30.9823C70.7851 31.0959 70.6855 30.1837 70.5551 29.9238Z" fill="white"/>
<path d="M96.7491 20.2822C96.7491 20.2822 96.9848 20.2668 97.0231 19.9646C97.073 19.5316 97.6517 14.4279 97.6517 14.4279C97.6517 14.4279 97.5904 13.0942 98.4567 12.8883C99.321 12.6862 99.9247 12.6862 100.595 12.9749C101.266 13.2616 101.487 14.0025 101.163 14.4837C100.841 14.9648 100.661 16.2523 100.588 16.5987C100.509 16.947 100.139 19.7606 100.139 19.7606L100.126 19.9107L101.795 19.8434C101.795 19.8434 103.043 19.5528 103.566 20.005C104.082 20.4611 104.402 20.7517 104.423 21.2406C104.446 21.7236 104.413 22.1008 103.871 22.1162C103.328 22.1316 101.136 22.2567 101.136 22.2567C101.136 22.2567 100.08 22.3144 100.001 22.4241C99.9209 22.5377 99.7695 25.1203 99.7752 26.8428C99.7829 28.5671 100.749 29.1868 101.282 29.0521C101.809 28.9174 102.343 27.9032 102.608 27.753C102.87 27.601 102.993 27.4278 103.85 28.1707C104.666 28.8769 104.565 29.3042 104.037 30.0605C103.821 30.3703 102.633 31.6482 100.293 31.144C97.1343 30.4646 96.7453 28.6576 96.6686 27.7011C96.59 26.7331 96.6341 25.2127 96.7088 24.7374C96.7797 24.2639 96.8507 23.0708 96.7874 22.7878C96.7644 22.6608 95.8905 22.9784 95.0626 22.7012C94.2366 22.4241 94.0986 21.7409 94.0756 21.4542C94.0468 21.1655 93.9683 20.7017 94.2193 20.6055C94.478 20.5054 96.7491 20.2822 96.7491 20.2822Z" fill="white"/>
<path d="M86.2825 21.7853C86.2825 21.7853 88.107 19.7357 90.61 20.2746C93.3371 20.8654 94.0136 23.0536 94.0501 24.7183C94.0826 26.3906 93.9619 28.879 93.9581 29.3601C93.9581 29.8432 93.8086 30.8285 93.8086 30.8285C93.8086 30.8285 93.7818 31.4116 92.1738 31.2635C90.8476 31.1403 90.5563 31.223 90.4701 30.5783C90.3742 29.9336 90.6176 29.8162 90.7039 28.2863C90.7863 26.7428 90.838 25.9461 90.838 25.9461C90.838 25.9461 91.0009 22.9246 89.9449 22.7264C88.7031 22.4935 87.6068 23.8176 87.2944 24.2275C86.9763 24.6394 86.5374 25.4322 86.4224 27.0738C86.3055 28.7193 86.2998 29.822 86.2998 29.822C86.2998 29.822 86.1982 30.817 86.2864 30.944C86.3707 31.0652 86.8 31.5868 86.2327 31.9409C85.6578 32.2969 84.6439 32.3008 83.8313 31.9986C83.0168 31.6984 83.0993 31.2731 83.0705 30.5495C83.0437 29.8259 83.2775 25.3168 83.2775 25.3168L83.4289 16.7143L83.5611 11.2295C83.5611 11.2295 83.6244 10.6079 83.4327 10.1441C83.2449 9.68413 83.3388 8.77577 85.1633 8.96437C87.1507 9.16259 87.1795 9.56673 87.0817 10.0902C86.9801 10.6098 86.8939 10.3577 86.8364 10.9331C86.7808 11.5008 86.4263 16.9472 86.4263 16.9472L86.2749 21.7853H86.2825Z" fill="white"/>
<path d="M81.8106 32.6684C81.7627 31.4271 81.7455 28.4499 81.7455 28.4499L81.6841 25.4785C81.6841 25.4785 81.7665 22.6726 81.803 22.2492C81.8355 21.8296 81.9659 21.5467 82.1633 21.2003C82.3626 20.8597 81.6266 20.4652 80.9674 20.3458C80.3062 20.2246 79.8635 20.3478 79.6392 20.4555C79.4706 20.5383 79.1141 20.1419 79.1141 20.1419C79.1141 20.1419 78.4146 19.5837 77.098 19.3701C74.3766 18.939 73.1059 20.6134 72.1247 23.7484C71.0419 27.4549 71.5612 28.8348 71.9982 29.6373C72.4371 30.436 74.0738 31.7138 75.6664 31.9409C77.2647 32.1738 78.7347 31.0479 78.7174 31.0653C78.8573 31.8428 78.7615 34.5197 78.7615 34.5197C78.7615 34.5197 78.7021 36.3422 77.3375 36.5443C75.973 36.7502 75.5878 35.2491 75.3961 34.8315C75.2026 34.4081 75.3003 34.1233 75.3425 33.671C75.3866 33.2207 75.0128 33.0706 74.4283 33.0629C73.8476 33.0571 72.6862 33.2688 72.2359 33.8462C71.7855 34.4254 71.9963 34.639 72.1094 34.8835C72.2224 35.1259 72.4064 35.4743 72.5981 35.8803C73.2458 37.776 75.3176 39.0076 76.7856 38.9403C78.2536 38.8768 79.7581 38.3264 80.7431 37.2063C81.7263 36.0805 81.8662 33.9097 81.8106 32.6722V32.6684ZM78.5104 27.2567C78.3993 27.6801 77.5503 29.2562 76.1857 29.4371C74.8231 29.6046 74.4666 27.5415 74.8327 25.5016C75.1968 23.4674 76.2356 21.8874 76.9677 21.9451C77.6998 22.0028 78.5948 22.4917 78.6388 24.012C78.681 25.5324 78.635 26.689 78.5104 27.2567Z" fill="white"/>
<path d="M7.318 14.934C7.318 14.934 6.54374 15.6672 6.51116 16.2484C6.47858 16.8257 7.02286 17.2722 7.49432 17.9785C7.55948 18.1036 8.88186 19.8087 10.1697 21.0885C11.4595 22.3683 14.2327 23.9617 15.2542 24.3197C15.3136 24.3736 15.2618 24.5872 15.2618 24.5872C15.2618 24.5872 15.097 26.529 14.8613 28.4785C14.6313 30.43 14.5508 31.3884 14.5508 31.3884C14.5508 31.3884 14.2672 33.8402 15.6451 34.2789C16.1913 34.4483 16.8199 34.6869 17.8338 34.404C18.8438 34.1192 18.5237 33.5765 18.5237 33.5765C18.5237 33.5765 18.3033 33.2032 18.0752 32.6855C17.8434 32.1716 18.1902 28.6998 18.1902 28.6998L18.3378 26.9274L18.5084 25.4378C18.5084 25.4378 18.4413 25.357 18.7863 25.4147C19.1351 25.4763 21.7683 25.6495 21.7683 25.6495C21.7683 25.6495 23.7825 25.7515 25.6952 25.4128C26.3066 25.2743 27.1805 24.999 27.1805 24.999C27.1805 24.999 27.2629 24.999 27.2514 25.3743C27.2361 25.7515 27.4105 27.2796 27.422 27.8127C27.4354 28.3477 27.5599 30.2048 27.5868 30.5435C27.6174 30.8841 27.7478 32.4006 27.7478 32.4006C27.7478 32.4006 27.8838 34.3713 28.2863 34.8351C28.6888 35.2932 29.8156 35.1738 29.8156 35.1738C29.8156 35.1738 30.2564 35.195 31.0575 34.8063C31.8625 34.4194 31.5712 33.7343 31.5712 33.7343C31.5712 33.7343 31.5175 33.6131 31.3488 33.3956C31.1802 33.1685 31.0594 32.4353 30.9885 31.8464C30.9176 31.2613 30.8199 30.2144 30.8199 30.2144L30.5861 26.9794L30.4328 25.001C30.4328 25.001 30.3868 23.6654 30.4711 23.5345C30.5535 23.4056 31.2473 22.9129 31.2473 22.9129C31.2473 22.9129 32.6367 21.7236 32.9031 20.9345C33.1638 20.1455 33.0507 19.7182 33.0507 19.7182C33.0507 19.7182 32.9376 18.8695 32.309 18.3422C32.0905 18.1498 31.6919 18.3095 31.5654 18.5366C31.4389 18.7618 31.3661 18.9484 31.2818 19.0562C31.1994 19.1659 30.7049 19.7259 30.6455 19.7817C30.5899 19.8356 30.4864 20.0108 30.4117 19.928C30.3408 19.853 30.2603 18.2518 30.2679 17.9843C30.2737 17.7245 30.1721 14.857 30.1721 14.857C30.1721 14.857 30.1932 12.8594 30.1721 12.2397C30.1529 11.6181 30.3159 8.95071 30.358 8.61007C30.4059 8.44264 30.5592 8.45611 30.6455 7.91533C30.7356 7.37262 29.7582 6.86841 28.5489 6.75871C27.8915 6.70098 27.4507 6.70483 27.1498 6.8838C26.8068 7.0801 26.7972 7.39572 26.7818 7.59971C26.7435 7.97307 26.9735 8.20016 27.0099 8.612C27.0482 9.01614 26.9582 9.81096 26.9582 9.81096L26.9716 11.2409V13.7927L27.0003 17.4127L27.0674 19.8703C27.0674 19.8703 27.1479 21.7755 27.169 21.8525C27.1881 21.9314 27.1594 21.9814 27.1134 22.0161C27.0732 22.0546 25.8753 22.7897 22.51 22.8301C20.8772 22.8147 19.4513 22.5954 18.8898 22.3586C18.8917 22.2489 19.068 20.7902 19.068 20.7902C19.068 20.7902 19.7886 15.5171 20.0262 14.3662C20.262 13.2212 20.5494 11.3775 20.7641 10.4364C20.9787 9.49341 21.2681 9.18165 21.362 9.03539C21.4636 8.89105 21.8891 8.07506 20.8292 7.70749C19.3133 7.63435 18.3225 8.19053 18.3225 8.19053C18.3225 8.19053 17.4409 8.66011 17.5137 9.36062C17.5885 10.0592 17.508 10.5577 17.4831 10.7155C17.4543 10.8752 17.1707 11.7566 16.9618 13.0691C16.751 14.3835 16.6149 15.4362 16.6149 15.4362L16.2297 17.7841L15.879 19.878L15.6624 21.279C15.6624 21.279 14.5278 21.0558 12.4791 19.0504C10.4342 17.0413 9.72894 15.7576 9.52196 15.2419C9.49322 15.1379 9.55454 14.5856 8.69787 14.4086C7.81246 14.3066 7.31034 14.9359 7.31034 14.9359L7.318 14.934Z" fill="white"/>
<path d="M111.862 17.8748C111.862 17.8748 113.849 17.9575 115.137 19.4163C116.052 20.7134 116.13 22.1241 116.13 22.1241C116.13 22.1241 116.08 22.5802 115.226 22.6552C114.371 22.7283 113.698 22.9362 113.079 22.2145C112.462 21.4967 112.56 20.5344 111.678 20.6884C110.791 20.8462 109.227 21.7719 109.112 22.7052C109.005 23.6175 110.718 24.0928 111.912 24.4816C113.685 25.0551 116.487 25.3995 116.076 27.7821C115.668 30.1704 112.435 31.1134 109.852 30.8093C109.248 30.7438 108.696 30.6765 108.192 30.5418C106.377 30.0664 105.267 29.312 105.254 28.3402C105.06 27.4761 106.703 26.9988 107.234 27.02C107.761 27.0373 107.717 26.9892 108.225 27.6166C108.731 28.2459 109.24 28.3459 110.469 28.4518C111.697 28.5596 112.276 28.0784 112.276 28.0784C112.276 28.0784 112.868 27.63 111.981 27.2355C111.092 26.8506 106.644 25.9191 105.913 24.393C105.181 22.8611 105.726 21.0714 106.849 20.0899C107.977 19.1045 109.227 17.715 111.858 17.8767L111.862 17.8748Z" fill="white"/>
<path d="M113.976 13.1191H113.47V14.4721H113.022V13.1191H112.514V12.7419H113.976V13.1191ZM116.172 14.4721H115.745V13.2981H115.737L115.308 14.4721H115.051L114.62 13.2981H114.61V14.4721H114.185V12.7419H114.79L115.178 13.7234L115.567 12.7419H116.172V14.4721Z" fill="white"/>
</g>
<defs>
<clipPath id="clip0_31_3665">
<rect width="132" height="68" fill="white"/>
</clipPath>
</defs>
</svg>
